STARTFONT 2.1
FONT -FontForge-Courgette-Book-R-Normal--18-180-72-72-P-93-ISO10646-1
SIZE 18 72 72
FONTBOUNDINGBOX 23 23 -3 -5
COMMENT "Generated by fontforge, http://fontforge.sourceforge.net"
COMMENT "Copyright (c) 2012, Sorkin Type Co (www.sorkintype.com) with Reserved Font Name "Courgette"."
STARTPROPERTIES 40
FOUNDRY "FontForge"
FAMILY_NAME "Courgette"
WEIGHT_NAME "Book"
SLANT "R"
SETWIDTH_NAME "Normal"
ADD_STYLE_NAME ""
PIXEL_SIZE 18
POINT_SIZE 180
RESOLUTION_X 72
RESOLUTION_Y 72
SPACING "P"
AVERAGE_WIDTH 93
CHARSET_REGISTRY "ISO10646"
CHARSET_ENCODING "1"
FONTNAME_REGISTRY ""
CHARSET_COLLECTIONS "ISO8859-2 ISO8859-9 ISO8859-4 ISO10646-1"
FONT_NAME "Courgette-Regular"
FACE_NAME "Courgette Regular"
COPYRIGHT "Copyright (c) 2012, Sorkin Type Co (www.sorkintype.com) with Reserved Font Name "Courgette"."
FONT_VERSION "1.002"
FONT_ASCENT 14
FONT_DESCENT 4
UNDERLINE_POSITION -2
UNDERLINE_THICKNESS 1
X_HEIGHT 8
CAP_HEIGHT 13
DEFAULT_CHAR 1
RAW_ASCENT 799
RAW_DESCENT 200
NORM_SPACE 6
RELATIVE_WEIGHT 40
RELATIVE_SETWIDTH 50
SUPERSCRIPT_X 0
SUPERSCRIPT_Y 8
SUPERSCRIPT_SIZE 11
SUBSCRIPT_X 0
SUBSCRIPT_Y 2
SUBSCRIPT_SIZE 11
AVG_LOWERCASE_WIDTH 89
AVG_UPPERCASE_WIDTH 105
ENDPROPERTIES
CHARS 407
STARTCHAR .null.dup1
ENCODING 0
SWIDTH 0 0
DWIDTH 0 0
BBX 1 1 0 0
BITMAP
00
ENDCHAR
STARTCHAR uni0001
ENCODING 1
SWIDTH 0 0
DWIDTH 0 0
BBX 1 1 0 0
BITMAP
00
ENDCHAR
STARTCHAR uni0002
ENCODING 2
SWIDTH 0 0
DWIDTH 0 0
BBX 1 1 0 0
BITMAP
00
ENDCHAR
STARTCHAR uni0003
ENCODING 3
SWIDTH 0 0
DWIDTH 0 0
BBX 1 1 0 0
BITMAP
00
ENDCHAR
STARTCHAR uni0004
ENCODING 4
SWIDTH 0 0
DWIDTH 0 0
BBX 1 1 0 0
BITMAP
00
ENDCHAR
STARTCHAR uni0005
ENCODING 5
SWIDTH 0 0
DWIDTH 0 0
BBX 1 1 0 0
BITMAP
00
ENDCHAR
STARTCHAR uni0006
ENCODING 6
SWIDTH 0 0
DWIDTH 0 0
BBX 1 1 0 0
BITMAP
00
ENDCHAR
STARTCHAR uni0007
ENCODING 7
SWIDTH 0 0
DWIDTH 0 0
BBX 1 1 0 0
BITMAP
00
ENDCHAR
STARTCHAR uni0008
ENCODING 8
SWIDTH 0 0
DWIDTH 0 0
BBX 1 1 0 0
BITMAP
00
ENDCHAR
STARTCHAR uni0009
ENCODING 9
SWIDTH 0 0
DWIDTH 0 0
BBX 1 1 0 0
BITMAP
00
ENDCHAR
STARTCHAR nonmarkingreturn
ENCODING 13
SWIDTH 0 0
DWIDTH 0 0
BBX 1 1 0 0
BITMAP
00
ENDCHAR
STARTCHAR uni0015
ENCODING 21
SWIDTH 0 0
DWIDTH 0 0
BBX 1 1 0 0
BITMAP
00
ENDCHAR
STARTCHAR uni0016
ENCODING 22
SWIDTH 0 0
DWIDTH 0 0
BBX 1 1 0 0
BITMAP
00
ENDCHAR
STARTCHAR uni0017
ENCODING 23
SWIDTH 0 0
DWIDTH 0 0
BBX 1 1 0 0
BITMAP
00
ENDCHAR
STARTCHAR uni0018
ENCODING 24
SWIDTH 0 0
DWIDTH 0 0
BBX 1 1 0 0
BITMAP
00
ENDCHAR
STARTCHAR uni0019
ENCODING 25
SWIDTH 0 0
DWIDTH 0 0
BBX 1 1 0 0
BITMAP
00
ENDCHAR
STARTCHAR space
ENCODING 32
SWIDTH 307 0
DWIDTH 6 0
BBX 1 1 0 0
BITMAP
00
ENDCHAR
STARTCHAR exclam
ENCODING 33
SWIDTH 417 0
DWIDTH 8 0
BBX 7 14 1 0
BITMAP
06
0E
0C
1C
18
18
30
30
20
20
00
60
E0
60
ENDCHAR
STARTCHAR quotedbl
ENCODING 34
SWIDTH 437 0
DWIDTH 8 0
BBX 7 5 2 10
BITMAP
22
76
6C
CC
48
ENDCHAR
STARTCHAR numbersign
ENCODING 35
SWIDTH 725 0
DWIDTH 13 0
BBX 12 14 1 0
BITMAP
0360
0660
0640
04C0
04C0
7FF0
0980
0980
1900
FFE0
1300
3200
2200
2400
ENDCHAR
STARTCHAR dollar
ENCODING 36
SWIDTH 545 0
DWIDTH 10 0
BBX 9 19 1 -3
BITMAP
0080
0180
0F00
1880
3080
3080
3180
3380
3300
3800
1800
0C00
4C00
CC00
CC00
7800
6000
4000
4000
ENDCHAR
STARTCHAR percent
ENCODING 37
SWIDTH 876 0
DWIDTH 16 0
BBX 14 14 1 0
BITMAP
1C18
6430
6420
C460
CCC0
C980
7300
0238
0648
0CCC
1888
3198
20B0
40E0
ENDCHAR
STARTCHAR ampersand
ENCODING 38
SWIDTH 563 0
DWIDTH 10 0
BBX 9 14 1 0
BITMAP
0F00
1880
3080
6180
6780
6200
7800
3C00
6000
CF80
C600
C600
CC00
7800
ENDCHAR
STARTCHAR quotesingle
ENCODING 39
SWIDTH 231 0
DWIDTH 4 0
BBX 4 5 2 10
BITMAP
20
70
60
C0
40
ENDCHAR
STARTCHAR parenleft
ENCODING 40
SWIDTH 478 0
DWIDTH 9 0
BBX 9 21 2 -4
BITMAP
0080
0300
0600
0C00
1800
1800
3000
2000
6000
6000
C000
C000
C000
C000
C000
C000
C000
4000
6000
6000
3000
ENDCHAR
STARTCHAR parenright
ENCODING 41
SWIDTH 478 0
DWIDTH 9 0
BBX 9 21 -2 -4
BITMAP
0400
0600
0300
0100
0180
0180
0180
0180
0180
0180
0180
0180
0300
0300
0600
0600
0C00
1800
1000
2000
C000
ENDCHAR
STARTCHAR asterisk
ENCODING 42
SWIDTH 518 0
DWIDTH 9 0
BBX 7 7 2 7
BITMAP
1C
58
56
7E
30
48
8C
ENDCHAR
STARTCHAR plus
ENCODING 43
SWIDTH 617 0
DWIDTH 11 0
BBX 9 9 1 2
BITMAP
0800
0800
0800
0800
FF80
0800
0800
0800
0800
ENDCHAR
STARTCHAR comma
ENCODING 44
SWIDTH 312 0
DWIDTH 6 0
BBX 3 5 0 -3
BITMAP
60
60
60
60
80
ENDCHAR
STARTCHAR hyphen
ENCODING 45
SWIDTH 452 0
DWIDTH 8 0
BBX 6 1 1 5
BITMAP
FC
ENDCHAR
STARTCHAR period
ENCODING 46
SWIDTH 270 0
DWIDTH 5 0
BBX 3 3 0 0
BITMAP
60
E0
60
ENDCHAR
STARTCHAR slash
ENCODING 47
SWIDTH 405 0
DWIDTH 7 0
BBX 11 19 -1 -3
BITMAP
0020
0060
0040
00C0
0180
0180
0300
0200
0600
0400
0C00
0800
1800
3000
2000
6000
4000
C000
8000
ENDCHAR
STARTCHAR zero
ENCODING 48
SWIDTH 621 0
DWIDTH 11 0
BBX 10 14 1 0
BITMAP
0380
0CC0
18C0
30C0
30C0
60C0
60C0
61C0
C180
C380
C300
C600
CC00
7800
ENDCHAR
STARTCHAR one
ENCODING 49
SWIDTH 405 0
DWIDTH 7 0
BBX 6 14 1 0
BITMAP
0C
1C
7C
4C
0C
18
18
10
30
30
20
60
40
80
ENDCHAR
STARTCHAR two
ENCODING 50
SWIDTH 524 0
DWIDTH 9 0
BBX 10 14 0 0
BITMAP
0700
1880
18C0
30C0
3980
1180
0300
0600
0C00
1800
3000
6000
FF00
CF00
ENDCHAR
STARTCHAR three
ENCODING 51
SWIDTH 537 0
DWIDTH 10 0
BBX 9 14 1 0
BITMAP
0F00
1980
3180
7180
7180
2300
0600
1C00
1C00
0600
C600
CC00
CC00
7000
ENDCHAR
STARTCHAR four
ENCODING 52
SWIDTH 529 0
DWIDTH 10 0
BBX 8 14 1 0
BITMAP
18
18
18
30
33
63
63
C6
C7
FC
0C
08
18
10
ENDCHAR
STARTCHAR five
ENCODING 53
SWIDTH 540 0
DWIDTH 10 0
BBX 10 14 1 0
BITMAP
0FC0
1FC0
1800
3000
3000
3E00
6300
4300
0300
0300
C600
8600
8C00
7000
ENDCHAR
STARTCHAR six
ENCODING 54
SWIDTH 554 0
DWIDTH 10 0
BBX 9 14 1 0
BITMAP
0780
0C80
1880
3380
3000
6000
6E00
F300
E300
C300
C300
C600
4E00
3800
ENDCHAR
STARTCHAR seven
ENCODING 55
SWIDTH 473 0
DWIDTH 9 0
BBX 8 13 2 1
BITMAP
FF
7B
06
0C
18
18
30
60
60
60
C0
C0
C0
ENDCHAR
STARTCHAR eight
ENCODING 56
SWIDTH 524 0
DWIDTH 9 0
BBX 9 14 1 0
BITMAP
0F00
1B80
3180
3180
3180
3300
3E00
1C00
3C00
4C00
C400
C400
CC00
7800
ENDCHAR
STARTCHAR nine
ENCODING 57
SWIDTH 554 0
DWIDTH 10 0
BBX 9 14 1 0
BITMAP
0F00
1980
3180
6180
6180
6180
6380
6700
3F00
0300
0600
C400
C800
F000
ENDCHAR
STARTCHAR colon
ENCODING 58
SWIDTH 312 0
DWIDTH 6 0
BBX 4 9 1 0
BITMAP
20
70
70
00
00
00
C0
C0
C0
ENDCHAR
STARTCHAR semicolon
ENCODING 59
SWIDTH 312 0
DWIDTH 6 0
BBX 5 11 0 -3
BITMAP
38
38
10
00
00
00
60
60
60
60
80
ENDCHAR
STARTCHAR less
ENCODING 60
SWIDTH 637 0
DWIDTH 11 0
BBX 9 10 1 1
BITMAP
0080
0380
0E00
1800
7000
E000
3800
0E00
0300
0180
ENDCHAR
STARTCHAR equal
ENCODING 61
SWIDTH 617 0
DWIDTH 11 0
BBX 9 4 1 5
BITMAP
FF80
0000
0000
FF80
ENDCHAR
STARTCHAR greater
ENCODING 62
SWIDTH 606 0
DWIDTH 11 0
BBX 9 10 1 1
BITMAP
C000
7000
1C00
0600
0380
0380
0E00
1800
6000
C000
ENDCHAR
STARTCHAR question
ENCODING 63
SWIDTH 516 0
DWIDTH 9 0
BBX 9 14 1 0
BITMAP
0F00
1980
1180
3980
1300
0700
1C00
1800
3000
2000
0000
6000
E000
6000
ENDCHAR
STARTCHAR at
ENCODING 64
SWIDTH 905 0
DWIDTH 16 0
BBX 15 14 1 -2
BITMAP
03F0
0C1C
1004
21B6
6666
4C66
CC46
CCC4
CDC8
CEF0
C000
6000
7040
1F80
ENDCHAR
STARTCHAR A
ENCODING 65
SWIDTH 615 0
DWIDTH 11 0
BBX 14 14 -2 0
BITMAP
001C
007C
00D8
0098
0110
0330
0230
07F8
1FF0
0860
1860
1060
3040
E070
ENDCHAR
STARTCHAR B
ENCODING 66
SWIDTH 551 0
DWIDTH 10 0
BBX 10 14 1 0
BITMAP
3F00
7180
50C0
38C0
31C0
7180
6700
7E00
C600
C300
C300
8600
CC00
7800
ENDCHAR
STARTCHAR C
ENCODING 67
SWIDTH 533 0
DWIDTH 10 0
BBX 10 14 1 0
BITMAP
0780
0CC0
18C0
30C0
7180
6380
E000
C000
C000
C000
C000
C200
E600
7C00
ENDCHAR
STARTCHAR D
ENCODING 68
SWIDTH 630 0
DWIDTH 11 0
BBX 11 14 1 0
BITMAP
3F00
61C0
00C0
1860
3060
3060
70C0
60C0
61C0
C180
C300
C600
DC00
7000
ENDCHAR
STARTCHAR E
ENCODING 69
SWIDTH 509 0
DWIDTH 9 0
BBX 10 14 1 0
BITMAP
0F80
1C80
30C0
7180
6300
6200
6000
3C00
7000
E000
C000
C200
CE00
7800
ENDCHAR
STARTCHAR F
ENCODING 70
SWIDTH 518 0
DWIDTH 9 0
BBX 10 14 1 0
BITMAP
7C40
FFC0
CC00
0C00
0800
1800
1E00
3F00
7000
3000
6000
6000
C000
8000
ENDCHAR
STARTCHAR G
ENCODING 71
SWIDTH 598 0
DWIDTH 11 0
BBX 10 14 1 0
BITMAP
0780
0CC0
18C0
30C0
71C0
6380
6000
C000
C7C0
C380
C200
C200
E400
7800
ENDCHAR
STARTCHAR H
ENCODING 72
SWIDTH 668 0
DWIDTH 12 0
BBX 14 14 -1 0
BITMAP
1E08
160C
0618
0618
0C18
0C30
0FF8
1820
1860
1860
3060
30C0
60D0
C060
ENDCHAR
STARTCHAR I
ENCODING 73
SWIDTH 327 0
DWIDTH 6 0
BBX 6 14 0 0
BITMAP
3C
2C
0C
0C
0C
1C
18
18
18
30
30
60
60
C0
ENDCHAR
STARTCHAR J
ENCODING 74
SWIDTH 393 0
DWIDTH 7 0
BBX 11 19 -3 -5
BITMAP
03C0
0E60
0CE0
00C0
00C0
00C0
01C0
0180
0180
0380
0300
0700
0600
0E00
0C00
1800
3800
7000
C000
ENDCHAR
STARTCHAR K
ENCODING 75
SWIDTH 616 0
DWIDTH 11 0
BBX 13 14 -1 0
BITMAP
3C30
1618
0638
0C30
0C70
0CE0
0D80
1B00
1E00
1B00
3380
3180
60C0
C070
ENDCHAR
STARTCHAR L
ENCODING 76
SWIDTH 517 0
DWIDTH 9 0
BBX 10 14 0 0
BITMAP
0380
0640
0C40
0CC0
19C0
1B80
3B00
3000
3000
6000
6000
4000
BF00
E100
ENDCHAR
STARTCHAR M
ENCODING 77
SWIDTH 931 0
DWIDTH 17 0
BBX 19 14 -2 0
BITMAP
0030E0
00F1E0
00B140
0162C0
0366C0
026580
066D80
04C980
0CD980
18D300
18F300
30E300
60E300
C0C1C0
ENDCHAR
STARTCHAR N
ENCODING 78
SWIDTH 708 0
DWIDTH 13 0
BBX 14 14 0 0
BITMAP
0318
070C
0A0C
1A0C
1608
3218
3310
2330
6320
6320
4340
C1C0
C1C0
4080
ENDCHAR
STARTCHAR O
ENCODING 79
SWIDTH 655 0
DWIDTH 12 0
BBX 11 14 1 0
BITMAP
03C0
0C60
1860
3860
3060
6060
6060
E0C0
C0C0
C180
C180
C300
4600
3C00
ENDCHAR
STARTCHAR P
ENCODING 80
SWIDTH 553 0
DWIDTH 10 0
BBX 12 14 -1 0
BITMAP
07C0
1C30
1830
0630
0630
0C70
0CE0
1DC0
1F00
1800
3000
3000
6000
C000
ENDCHAR
STARTCHAR Q
ENCODING 81
SWIDTH 655 0
DWIDTH 12 0
BBX 12 17 1 -3
BITMAP
0780
0C40
1860
3060
6060
6060
60C0
C0C0
C1C0
E180
6300
6600
1C00
7E00
0700
0380
00F0
ENDCHAR
STARTCHAR R
ENCODING 82
SWIDTH 623 0
DWIDTH 11 0
BBX 12 14 -1 0
BITMAP
07C0
1C30
1230
0630
0630
0C70
0CE0
1FC0
1F00
1B00
3180
3180
60C0
C070
ENDCHAR
STARTCHAR S
ENCODING 83
SWIDTH 474 0
DWIDTH 9 0
BBX 10 14 0 0
BITMAP
0780
1880
18C0
30C0
31C0
3380
3900
1800
1C00
0C00
4600
C400
C400
7800
ENDCHAR
STARTCHAR T
ENCODING 84
SWIDTH 471 0
DWIDTH 8 0
BBX 10 14 1 0
BITMAP
7C40
FFC0
C600
4C00
0C00
0C00
1800
1800
1800
3000
3000
3000
6000
C000
ENDCHAR
STARTCHAR U
ENCODING 85
SWIDTH 624 0
DWIDTH 11 0
BBX 12 14 0 0
BITMAP
1C10
0C30
0C30
1860
1860
18E0
30C0
31C0
61C0
62C0
6380
C580
C980
70E0
ENDCHAR
STARTCHAR V
ENCODING 86
SWIDTH 587 0
DWIDTH 11 0
BBX 12 14 1 0
BITMAP
3870
7C30
4C30
1830
1860
30E0
30C0
6180
6300
6600
4C00
D800
7000
6000
ENDCHAR
STARTCHAR W
ENCODING 87
SWIDTH 941 0
DWIDTH 17 0
BBX 17 14 1 0
BITMAP
780300
F80380
4C0180
187180
18E180
31C180
33C300
638300
658200
4D8600
D98400
D18800
E19000
60E000
ENDCHAR
STARTCHAR X
ENCODING 88
SWIDTH 552 0
DWIDTH 10 0
BBX 14 14 -1 0
BITMAP
021C
0638
0660
0640
06C0
0780
0700
0600
0700
0F00
1B00
3380
61E0
C0C0
ENDCHAR
STARTCHAR Y
ENCODING 89
SWIDTH 580 0
DWIDTH 10 0
BBX 12 19 0 -5
BITMAP
1C10
0C30
0C30
1860
1860
38E0
30C0
31C0
61C0
6280
6380
C500
CB00
7300
0600
0C00
0C00
1800
6000
ENDCHAR
STARTCHAR Z
ENCODING 90
SWIDTH 501 0
DWIDTH 9 0
BBX 11 14 0 0
BITMAP
20C0
3FE0
1CC0
0180
0380
0700
0E00
1C00
1800
3000
6000
CF00
FF00
E100
ENDCHAR
STARTCHAR bracketleft
ENCODING 91
SWIDTH 396 0
DWIDTH 7 0
BBX 9 19 0 -3
BITMAP
0380
0300
0600
0600
0600
0C00
0C00
0C00
1800
1800
1800
3000
3000
3000
6000
6000
4000
C000
F000
ENDCHAR
STARTCHAR backslash
ENCODING 92
SWIDTH 464 0
DWIDTH 8 0
BBX 6 19 1 -3
BITMAP
80
C0
C0
40
40
60
60
20
20
30
30
10
10
18
18
08
08
0C
04
ENDCHAR
STARTCHAR bracketright
ENCODING 93
SWIDTH 394 0
DWIDTH 7 0
BBX 9 19 -1 -3
BITMAP
0380
0180
0180
0100
0300
0300
0200
0600
0600
0400
0C00
0C00
0800
1800
1800
1000
3000
3000
E000
ENDCHAR
STARTCHAR asciicircum
ENCODING 94
SWIDTH 540 0
DWIDTH 10 0
BBX 8 8 2 6
BITMAP
10
18
38
6C
64
C6
82
83
ENDCHAR
STARTCHAR underscore
ENCODING 95
SWIDTH 530 0
DWIDTH 10 0
BBX 12 1 -3 -3
BITMAP
FFF0
ENDCHAR
STARTCHAR grave
ENCODING 96
SWIDTH 219 0
DWIDTH 4 0
BBX 2 4 1 10
BITMAP
C0
C0
C0
40
ENDCHAR
STARTCHAR a
ENCODING 97
SWIDTH 541 0
DWIDTH 10 0
BBX 9 9 1 0
BITMAP
1D80
3300
6300
C600
C600
C600
CC00
D700
E700
ENDCHAR
STARTCHAR b
ENCODING 98
SWIDTH 525 0
DWIDTH 9 0
BBX 8 15 1 0
BITMAP
18
10
30
30
30
20
6E
73
63
E3
C7
C6
8E
9C
70
ENDCHAR
STARTCHAR c
ENCODING 99
SWIDTH 465 0
DWIDTH 8 0
BBX 7 9 1 0
BITMAP
1E
32
66
C6
C4
C0
C0
CC
78
ENDCHAR
STARTCHAR d
ENCODING 100
SWIDTH 557 0
DWIDTH 10 0
BBX 11 15 1 0
BITMAP
0060
00C0
00C0
00C0
0180
0180
1D80
3300
6300
4300
C600
C600
CE00
DE80
F700
ENDCHAR
STARTCHAR e
ENCODING 101
SWIDTH 471 0
DWIDTH 8 0
BBX 7 9 1 0
BITMAP
1E
36
66
C6
CC
F0
C0
C4
78
ENDCHAR
STARTCHAR f
ENCODING 102
SWIDTH 393 0
DWIDTH 7 0
BBX 10 17 0 -2
BITMAP
0380
06C0
0CC0
0D80
0D80
1800
1800
3F00
7000
3000
3000
2000
6000
6000
4000
C000
C000
ENDCHAR
STARTCHAR g
ENCODING 103
SWIDTH 526 0
DWIDTH 9 0
BBX 9 14 1 -5
BITMAP
1D00
3380
6300
C300
C600
C600
CE00
DC00
EC00
0C00
0800
1800
3000
E000
ENDCHAR
STARTCHAR h
ENCODING 104
SWIDTH 555 0
DWIDTH 10 0
BBX 9 15 0 0
BITMAP
0C00
0C00
0C00
0C00
1800
1800
1B80
1780
3580
3980
3300
6300
6300
C600
C380
ENDCHAR
STARTCHAR i
ENCODING 105
SWIDTH 286 0
DWIDTH 5 0
BBX 6 14 0 0
BITMAP
1C
1C
08
00
00
38
30
30
30
60
60
40
F0
60
ENDCHAR
STARTCHAR j
ENCODING 106
SWIDTH 281 0
DWIDTH 5 0
BBX 8 19 -3 -5
BITMAP
03
03
02
00
00
06
06
06
06
06
04
0C
0C
08
18
10
30
60
C0
ENDCHAR
STARTCHAR k
ENCODING 107
SWIDTH 497 0
DWIDTH 9 0
BBX 9 15 0 0
BITMAP
0C00
0C00
0C00
0C00
1800
1800
1980
1180
3380
3600
3800
7800
6C00
CF00
C700
ENDCHAR
STARTCHAR l
ENCODING 108
SWIDTH 279 0
DWIDTH 5 0
BBX 5 15 1 0
BITMAP
18
18
18
30
30
30
20
60
60
40
C0
C0
C0
A0
C0
ENDCHAR
STARTCHAR m
ENCODING 109
SWIDTH 814 0
DWIDTH 15 0
BBX 14 9 0 0
BITMAP
3B9C
37BC
34EC
39C8
3198
6310
6330
C63C
C618
ENDCHAR
STARTCHAR n
ENCODING 110
SWIDTH 561 0
DWIDTH 10 0
BBX 9 9 0 0
BITMAP
3380
3780
3580
3980
3380
6300
6300
C200
C380
ENDCHAR
STARTCHAR o
ENCODING 111
SWIDTH 514 0
DWIDTH 9 0
BBX 8 9 1 0
BITMAP
1E
32
63
C3
C6
C6
CC
DC
70
ENDCHAR
STARTCHAR p
ENCODING 112
SWIDTH 550 0
DWIDTH 10 0
BBX 10 14 -1 -5
BITMAP
3B80
1EC0
1CC0
18C0
30C0
31C0
3180
3300
6E00
6000
6000
C000
C000
8000
ENDCHAR
STARTCHAR q
ENCODING 113
SWIDTH 533 0
DWIDTH 10 0
BBX 9 14 1 -5
BITMAP
1C00
3380
6300
C300
C600
C600
CE00
DC00
6C00
0C00
0800
1800
1800
0800
ENDCHAR
STARTCHAR r
ENCODING 114
SWIDTH 407 0
DWIDTH 7 0
BBX 8 9 0 0
BITMAP
33
37
3D
38
30
60
60
C0
C0
ENDCHAR
STARTCHAR s
ENCODING 115
SWIDTH 423 0
DWIDTH 8 0
BBX 8 9 0 0
BITMAP
1E
33
32
30
38
18
4C
C8
70
ENDCHAR
STARTCHAR t
ENCODING 116
SWIDTH 358 0
DWIDTH 6 0
BBX 7 12 1 0
BITMAP
08
18
18
7E
30
60
60
60
40
C0
F8
70
ENDCHAR
STARTCHAR u
ENCODING 117
SWIDTH 553 0
DWIDTH 10 0
BBX 10 9 0 0
BITMAP
30C0
19C0
3180
3380
7300
6700
6B00
DA00
6380
ENDCHAR
STARTCHAR v
ENCODING 118
SWIDTH 510 0
DWIDTH 9 0
BBX 8 9 1 0
BITMAP
67
33
63
63
C2
C6
CC
D8
E0
ENDCHAR
STARTCHAR w
ENCODING 119
SWIDTH 750 0
DWIDTH 14 0
BBX 12 9 1 0
BITMAP
6030
7330
6330
6630
4E30
CC20
D440
E6C0
C700
ENDCHAR
STARTCHAR x
ENCODING 120
SWIDTH 467 0
DWIDTH 8 0
BBX 9 9 0 0
BITMAP
1180
3300
3600
3C00
3800
1800
3800
6800
8E00
ENDCHAR
STARTCHAR y
ENCODING 121
SWIDTH 549 0
DWIDTH 10 0
BBX 9 14 1 -5
BITMAP
7180
3180
6300
6300
E700
CE00
CE00
9600
E400
0C00
0800
1800
3000
E000
ENDCHAR
STARTCHAR z
ENCODING 122
SWIDTH 430 0
DWIDTH 8 0
BBX 8 9 0 0
BITMAP
33
1F
06
0C
18
30
60
FC
E6
ENDCHAR
STARTCHAR braceleft
ENCODING 123
SWIDTH 424 0
DWIDTH 8 0
BBX 9 19 1 -3
BITMAP
0380
0600
0600
0400
0C00
0C00
0C00
1800
1800
7000
6000
2000
2000
6000
6000
C000
C000
C000
E000
ENDCHAR
STARTCHAR bar
ENCODING 124
SWIDTH 306 0
DWIDTH 6 0
BBX 2 19 2 -3
BITMAP
40
C0
C0
C0
C0
C0
C0
C0
C0
C0
C0
C0
C0
C0
C0
C0
C0
C0
C0
ENDCHAR
STARTCHAR braceright
ENCODING 125
SWIDTH 424 0
DWIDTH 8 0
BBX 9 19 -1 -3
BITMAP
0300
0180
0180
0100
0300
0300
0600
0600
0200
0700
0C00
1800
1800
1800
1000
3000
3000
3000
E000
ENDCHAR
STARTCHAR asciitilde
ENCODING 126
SWIDTH 624 0
DWIDTH 11 0
BBX 10 4 1 5
BITMAP
3840
7C40
CC80
8700
ENDCHAR
STARTCHAR nonbreakingspace
ENCODING 160
SWIDTH 293 0
DWIDTH 5 0
BBX 1 1 0 0
BITMAP
00
ENDCHAR
STARTCHAR exclamdown
ENCODING 161
SWIDTH 417 0
DWIDTH 8 0
BBX 7 15 0 -4
BITMAP
04
0E
0E
00
08
18
30
30
30
60
60
60
E0
40
40
ENDCHAR
STARTCHAR cent
ENCODING 162
SWIDTH 487 0
DWIDTH 9 0
BBX 8 14 1 0
BITMAP
03
06
04
1E
33
66
66
60
C0
C2
64
78
20
20
ENDCHAR
STARTCHAR sterling
ENCODING 163
SWIDTH 665 0
DWIDTH 12 0
BBX 12 14 0 0
BITMAP
00E0
0190
0310
0330
0630
06E0
0640
3F80
0C00
0C00
7800
9C20
B7E0
E3C0
ENDCHAR
STARTCHAR currency
ENCODING 164
SWIDTH 572 0
DWIDTH 10 0
BBX 10 11 1 1
BITMAP
1040
10C0
1F80
1B00
3300
6300
6300
6600
6600
7E00
8200
ENDCHAR
STARTCHAR yen
ENCODING 165
SWIDTH 583 0
DWIDTH 11 0
BBX 12 14 1 0
BITMAP
6030
F0E0
30C0
1180
1B00
1B00
0E00
0C00
7F00
0C00
1800
7E00
1800
1000
ENDCHAR
STARTCHAR brokenbar
ENCODING 166
SWIDTH 292 0
DWIDTH 5 0
BBX 2 19 2 -3
BITMAP
C0
C0
C0
C0
C0
C0
C0
80
00
00
00
C0
C0
C0
C0
C0
C0
C0
80
ENDCHAR
STARTCHAR section
ENCODING 167
SWIDTH 583 0
DWIDTH 11 0
BBX 11 18 0 -4
BITMAP
03C0
0660
0C60
0C60
0CC0
0600
1E00
3300
3300
3180
3180
3980
1F00
1C00
4C00
CC00
CC00
7800
ENDCHAR
STARTCHAR dieresis
ENCODING 168
SWIDTH 412 0
DWIDTH 7 0
BBX 6 3 1 11
BITMAP
CC
CC
88
ENDCHAR
STARTCHAR copyright
ENCODING 169
SWIDTH 871 0
DWIDTH 16 0
BBX 14 14 1 0
BITMAP
03E0
0C30
1018
31CC
676C
4644
4CCC
CC8C
CC0C
CC88
4798
6030
30E0
0F80
ENDCHAR
STARTCHAR ordfeminine
ENCODING 170
SWIDTH 564 0
DWIDTH 10 0
BBX 8 8 2 5
BITMAP
1F
37
66
C6
C4
CC
D4
77
ENDCHAR
STARTCHAR guillemotleft
ENCODING 171
SWIDTH 662 0
DWIDTH 12 0
BBX 10 7 1 2
BITMAP
0C40
1980
7300
C600
6600
3300
1980
ENDCHAR
STARTCHAR logicalnot
ENCODING 172
SWIDTH 729 0
DWIDTH 13 0
BBX 11 6 1 1
BITMAP
FFC0
0060
0040
0040
0040
0040
ENDCHAR
STARTCHAR uni00AD
ENCODING 173
SWIDTH 833 0
DWIDTH 15 0
BBX 1 1 0 0
BITMAP
00
ENDCHAR
STARTCHAR registered
ENCODING 174
SWIDTH 742 0
DWIDTH 13 0
BBX 11 11 2 3
BITMAP
0F00
30C0
6E40
D120
8B20
9E20
9C60
9740
A2C0
4180
3E00
ENDCHAR
STARTCHAR macron
ENCODING 175
SWIDTH 392 0
DWIDTH 7 0
BBX 7 1 1 11
BITMAP
FE
ENDCHAR
STARTCHAR degree
ENCODING 176
SWIDTH 405 0
DWIDTH 7 0
BBX 6 6 2 8
BITMAP
38
6C
CC
CC
D8
70
ENDCHAR
STARTCHAR plusminus
ENCODING 177
SWIDTH 617 0
DWIDTH 11 0
BBX 9 12 1 0
BITMAP
0800
0800
0800
0800
FF80
0800
0800
0800
0800
0000
0000
FF80
ENDCHAR
STARTCHAR twosuperior
ENCODING 178
SWIDTH 458 0
DWIDTH 8 0
BBX 8 9 1 5
BITMAP
1E
32
33
36
0E
1C
30
60
FC
ENDCHAR
STARTCHAR threesuperior
ENCODING 179
SWIDTH 430 0
DWIDTH 8 0
BBX 8 10 1 4
BITMAP
1E
32
33
36
0C
18
0C
CC
C8
70
ENDCHAR
STARTCHAR acute
ENCODING 180
SWIDTH 322 0
DWIDTH 6 0
BBX 4 4 2 10
BITMAP
30
60
60
80
ENDCHAR
STARTCHAR mu
ENCODING 181
SWIDTH 618 0
DWIDTH 11 0
BBX 12 14 -1 -5
BITMAP
0430
0C60
1C60
18C0
19C0
31C0
3280
7CE0
78C0
6000
4000
4000
C000
4000
ENDCHAR
STARTCHAR paragraph
ENCODING 182
SWIDTH 739 0
DWIDTH 13 0
BBX 14 15 1 -1
BITMAP
01FC
0798
1F98
1F30
3F30
3F30
1F20
0E60
0660
0640
0CC0
ECC0
C880
9980
F100
ENDCHAR
STARTCHAR periodcentered
ENCODING 183
SWIDTH 353 0
DWIDTH 6 0
BBX 3 3 2 4
BITMAP
E0
E0
40
ENDCHAR
STARTCHAR cedilla
ENCODING 184
SWIDTH 301 0
DWIDTH 5 0
BBX 3 5 1 -4
BITMAP
60
20
20
60
C0
ENDCHAR
STARTCHAR onesuperior
ENCODING 185
SWIDTH 403 0
DWIDTH 7 0
BBX 5 10 2 4
BITMAP
18
38
F8
18
30
30
20
60
40
80
ENDCHAR
STARTCHAR ordmasculine
ENCODING 186
SWIDTH 498 0
DWIDTH 9 0
BBX 7 8 2 5
BITMAP
1C
36
66
C6
C6
CC
DC
70
ENDCHAR
STARTCHAR guillemotright
ENCODING 187
SWIDTH 665 0
DWIDTH 12 0
BBX 10 7 1 2
BITMAP
6600
3300
1980
18C0
3980
6600
8C00
ENDCHAR
STARTCHAR onequarter
ENCODING 188
SWIDTH 988 0
DWIDTH 18 0
BBX 14 15 2 0
BITMAP
0020
1860
38C0
F8C0
B180
3120
2330
6260
466C
CCCC
8CCC
18FC
1018
3030
2020
ENDCHAR
STARTCHAR onehalf
ENCODING 189
SWIDTH 988 0
DWIDTH 18 0
BBX 15 14 2 0
BITMAP
1860
3840
78C0
D080
3180
333C
6266
6666
446C
8C1C
1838
1060
30C4
20F8
ENDCHAR
STARTCHAR threequarters
ENCODING 190
SWIDTH 1007 0
DWIDTH 18 0
BBX 16 15 1 0
BITMAP
0008
1C18
2630
6620
2660
1C48
38C8
0998
C99B
9B33
F232
063F
0404
0C0C
1808
ENDCHAR
STARTCHAR questiondown
ENCODING 191
SWIDTH 516 0
DWIDTH 9 0
BBX 8 14 0 -3
BITMAP
03
03
03
00
02
06
0C
18
70
60
CC
CC
CC
78
ENDCHAR
STARTCHAR Agrave
ENCODING 192
SWIDTH 615 0
DWIDTH 11 0
BBX 14 18 -2 0
BITMAP
0010
0030
0038
0008
001C
007C
00D8
0098
0110
0330
0230
07F8
1FF0
0860
1860
1060
3040
E070
ENDCHAR
STARTCHAR Aacute
ENCODING 193
SWIDTH 615 0
DWIDTH 11 0
BBX 15 18 -2 0
BITMAP
0004
0006
000C
0010
001C
007C
00D8
0098
0110
0330
0230
07F8
1FF0
0860
1860
1060
3040
E070
ENDCHAR
STARTCHAR Acircumflex
ENCODING 194
SWIDTH 615 0
DWIDTH 11 0
BBX 15 18 -2 0
BITMAP
0008
001C
0034
0042
001C
007C
00D8
0098
0110
0330
0230
07F8
1FF0
0860
1860
1060
3040
E070
ENDCHAR
STARTCHAR Atilde
ENCODING 195
SWIDTH 615 0
DWIDTH 11 0
BBX 16 17 -2 0
BITMAP
0039
004E
0000
001C
007C
00D8
0098
0110
0330
0230
07F8
1FF0
0860
1860
1060
3040
E070
ENDCHAR
STARTCHAR Adieresis
ENCODING 196
SWIDTH 615 0
DWIDTH 11 0
BBX 16 17 -2 0
BITMAP
0066
0077
0022
001C
007C
00D8
0098
0110
0330
0230
07F8
1FF0
0860
1860
1040
3070
E070
ENDCHAR
STARTCHAR Aring
ENCODING 197
SWIDTH 615 0
DWIDTH 11 0
BBX 15 18 -2 0
BITMAP
001C
0036
0026
0024
003C
007C
00D8
0198
0198
0330
0630
0FF8
1C60
0860
1860
1060
3060
E070
ENDCHAR
STARTCHAR AE
ENCODING 198
SWIDTH 878 0
DWIDTH 16 0
BBX 18 14 -1 0
BITMAP
003F80
00DC40
01B840
0130C0
033380
063100
043000
0FFC00
3FF800
187000
306000
30C200
606600
C07C00
ENDCHAR
STARTCHAR Ccedilla
ENCODING 199
SWIDTH 533 0
DWIDTH 10 0
BBX 10 18 1 -4
BITMAP
0780
0CC0
18C0
30C0
71C0
6380
6000
C000
C000
C000
C000
C200
E600
7C00
3000
3000
7000
6000
ENDCHAR
STARTCHAR Egrave
ENCODING 200
SWIDTH 509 0
DWIDTH 9 0
BBX 10 18 1 0
BITMAP
0200
0600
0700
0100
0F80
1C80
30C0
7180
6300
6200
6000
3C00
7000
E000
C000
C200
CE00
7800
ENDCHAR
STARTCHAR Eacute
ENCODING 201
SWIDTH 509 0
DWIDTH 9 0
BBX 10 18 1 0
BITMAP
0080
00C0
0180
0200
0F80
1C80
30C0
7180
6300
6200
6000
3C00
7000
E000
C000
C200
CE00
7800
ENDCHAR
STARTCHAR Ecircumflex
ENCODING 202
SWIDTH 509 0
DWIDTH 9 0
BBX 10 18 1 0
BITMAP
0100
0380
0680
0840
0F80
1C80
30C0
7180
6300
6200
6000
3C00
7000
E000
C000
C200
CE00
7800
ENDCHAR
STARTCHAR Edieresis
ENCODING 203
SWIDTH 509 0
DWIDTH 9 0
BBX 11 17 1 0
BITMAP
0CC0
0EE0
0440
0F80
1C80
30C0
7180
6300
6200
6000
3C00
7000
E000
C000
C200
CE00
7800
ENDCHAR
STARTCHAR Igrave
ENCODING 204
SWIDTH 327 0
DWIDTH 6 0
BBX 7 18 0 0
BITMAP
08
18
0C
02
3C
2C
0C
0C
0C
1C
18
18
18
30
30
60
60
C0
ENDCHAR
STARTCHAR Iacute
ENCODING 205
SWIDTH 327 0
DWIDTH 6 0
BBX 8 17 0 0
BITMAP
01
03
06
3C
2C
0C
0C
0C
1C
18
18
18
30
30
60
60
C0
ENDCHAR
STARTCHAR Icircumflex
ENCODING 206
SWIDTH 327 0
DWIDTH 6 0
BBX 8 18 0 0
BITMAP
02
06
1B
11
3C
2C
0C
0C
0C
1C
18
18
18
30
30
60
60
C0
ENDCHAR
STARTCHAR Idieresis
ENCODING 207
SWIDTH 327 0
DWIDTH 6 0
BBX 9 17 0 0
BITMAP
1980
3B80
1100
3C00
2C00
0C00
0C00
0C00
1C00
1800
1800
1800
3000
3000
6000
6000
C000
ENDCHAR
STARTCHAR Eth
ENCODING 208
SWIDTH 630 0
DWIDTH 11 0
BBX 12 14 0 0
BITMAP
1F80
30C0
2060
0C20
1C30
1820
7E60
FC60
30E0
60C0
6180
6300
6E00
7800
ENDCHAR
STARTCHAR Ntilde
ENCODING 209
SWIDTH 708 0
DWIDTH 13 0
BBX 14 17 0 0
BITMAP
0064
00BC
0000
0318
070C
0A0C
1A0C
1608
3218
3310
2330
6320
6320
4340
C1C0
C1C0
4080
ENDCHAR
STARTCHAR Ograve
ENCODING 210
SWIDTH 655 0
DWIDTH 12 0
BBX 11 18 1 0
BITMAP
0100
0100
0180
0040
03C0
0C60
1860
3860
3060
6060
6060
E0C0
C0C0
C180
C180
C300
4600
3C00
ENDCHAR
STARTCHAR Oacute
ENCODING 211
SWIDTH 655 0
DWIDTH 12 0
BBX 11 18 1 0
BITMAP
0020
0060
0060
0080
03C0
0C60
1860
3860
3060
6060
6060
E0C0
C0C0
C180
C180
C300
4600
3C00
ENDCHAR
STARTCHAR Ocircumflex
ENCODING 212
SWIDTH 655 0
DWIDTH 12 0
BBX 12 18 1 0
BITMAP
0040
00E0
03E0
0230
03C0
0C60
1860
3860
3060
6060
6060
E0C0
C0C0
C180
C180
C300
4600
3C00
ENDCHAR
STARTCHAR Otilde
ENCODING 213
SWIDTH 655 0
DWIDTH 12 0
BBX 12 17 1 0
BITMAP
0190
06E0
0000
03C0
0C60
1860
3860
3060
6060
6060
E0C0
C0C0
C180
C180
C300
4600
3C00
ENDCHAR
STARTCHAR Odieresis
ENCODING 214
SWIDTH 655 0
DWIDTH 12 0
BBX 12 17 1 0
BITMAP
0330
0730
0220
03C0
0C60
1860
3860
3060
6060
6060
E0C0
C0C0
C180
C180
C300
4600
3C00
ENDCHAR
STARTCHAR multiply
ENCODING 215
SWIDTH 573 0
DWIDTH 10 0
BBX 7 7 2 3
BITMAP
82
44
28
10
28
44
82
ENDCHAR
STARTCHAR Oslash
ENCODING 216
SWIDTH 655 0
DWIDTH 12 0
BBX 11 17 2 -2
BITMAP
0060
07C0
0DC0
1960
3360
6260
64C0
C4C0
C8C0
D9C0
D180
A300
E700
CE00
F800
8000
8000
ENDCHAR
STARTCHAR Ugrave
ENCODING 217
SWIDTH 624 0
DWIDTH 11 0
BBX 12 18 0 0
BITMAP
0100
0100
0180
0040
1C10
0C30
0C30
1860
1860
18E0
30C0
31C0
61C0
62C0
6380
C580
C980
70E0
ENDCHAR
STARTCHAR Uacute
ENCODING 218
SWIDTH 624 0
DWIDTH 11 0
BBX 12 18 0 0
BITMAP
0020
0060
0060
0080
1C10
0C30
0C30
1860
1860
18E0
30C0
31C0
61C0
62C0
6380
C580
C980
70E0
ENDCHAR
STARTCHAR Ucircumflex
ENCODING 219
SWIDTH 624 0
DWIDTH 11 0
BBX 12 18 0 0
BITMAP
0040
00E0
0360
0220
1C10
0C30
0C30
1860
1860
18E0
30C0
31C0
61C0
62C0
6380
C580
C980
70E0
ENDCHAR
STARTCHAR Udieresis
ENCODING 220
SWIDTH 624 0
DWIDTH 11 0
BBX 12 17 0 0
BITMAP
0330
0770
0220
1C10
0C30
0C30
1860
1860
18E0
30C0
31C0
61C0
62C0
6380
C580
C980
70E0
ENDCHAR
STARTCHAR Yacute
ENCODING 221
SWIDTH 580 0
DWIDTH 10 0
BBX 12 22 0 -5
BITMAP
0060
0060
00C0
1C10
0C30
0C30
1860
1860
38E0
30C0
31C0
61C0
6280
6380
C500
CB00
7300
0600
0C00
0C00
1800
6000
ENDCHAR
STARTCHAR Thorn
ENCODING 222
SWIDTH 527 0
DWIDTH 10 0
BBX 11 14 -1 0
BITMAP
3C00
1600
0600
0C00
0F80
0CC0
0C60
1860
18C0
3B80
3E00
3000
6000
C000
ENDCHAR
STARTCHAR germandbls
ENCODING 223
SWIDTH 520 0
DWIDTH 9 0
BBX 11 18 -1 -3
BITMAP
03C0
0640
0460
0C60
0CC0
18C0
1980
1B00
1B00
3300
3380
3180
34C0
6C80
6700
6000
C000
8000
ENDCHAR
STARTCHAR agrave
ENCODING 224
SWIDTH 541 0
DWIDTH 10 0
BBX 9 14 1 0
BITMAP
0C00
0C00
0C00
0600
0000
1D80
3300
6300
C600
C600
C600
CC00
D700
E700
ENDCHAR
STARTCHAR aacute
ENCODING 225
SWIDTH 541 0
DWIDTH 10 0
BBX 9 14 1 0
BITMAP
0300
0300
0600
0C00
0000
1D80
3300
6300
C600
C600
C600
CC00
D700
E700
ENDCHAR
STARTCHAR acircumflex
ENCODING 226
SWIDTH 541 0
DWIDTH 10 0
BBX 9 14 1 0
BITMAP
0300
0700
0F00
3180
0000
1D80
3300
6300
C600
C600
C600
CC00
D700
E700
ENDCHAR
STARTCHAR atilde
ENCODING 227
SWIDTH 541 0
DWIDTH 10 0
BBX 9 14 1 0
BITMAP
0C80
1680
2300
0000
0000
1D80
3300
6300
C600
C600
C600
CC00
D700
E700
ENDCHAR
STARTCHAR adieresis
ENCODING 228
SWIDTH 541 0
DWIDTH 10 0
BBX 9 14 1 0
BITMAP
1980
1980
1100
0000
0000
1D80
3300
6300
C600
C600
C600
CC00
D700
E700
ENDCHAR
STARTCHAR aring
ENCODING 229
SWIDTH 541 0
DWIDTH 10 0
BBX 9 14 1 0
BITMAP
0700
0900
0900
0E00
0000
1D80
3300
6300
C600
C600
C600
CC00
D700
E700
ENDCHAR
STARTCHAR ae
ENCODING 230
SWIDTH 769 0
DWIDTH 14 0
BBX 13 9 1 0
BITMAP
1DF0
3390
6338
C730
C670
C7C0
CE00
D630
E3E0
ENDCHAR
STARTCHAR ccedilla
ENCODING 231
SWIDTH 465 0
DWIDTH 8 0
BBX 7 13 1 -4
BITMAP
1E
32
66
CE
C4
C0
C0
CC
78
20
20
60
E0
ENDCHAR
STARTCHAR egrave
ENCODING 232
SWIDTH 471 0
DWIDTH 8 0
BBX 7 14 1 0
BITMAP
08
18
08
0C
00
1E
36
66
C6
CC
F0
C0
C4
78
ENDCHAR
STARTCHAR eacute
ENCODING 233
SWIDTH 471 0
DWIDTH 8 0
BBX 7 14 1 0
BITMAP
06
06
0C
18
00
1E
36
66
C6
CC
F0
C0
C4
78
ENDCHAR
STARTCHAR ecircumflex
ENCODING 234
SWIDTH 471 0
DWIDTH 8 0
BBX 8 14 1 0
BITMAP
02
06
1A
33
00
1E
36
66
C6
CC
F0
C0
C4
78
ENDCHAR
STARTCHAR edieresis
ENCODING 235
SWIDTH 471 0
DWIDTH 8 0
BBX 9 14 1 0
BITMAP
3300
3B80
1100
0000
0000
1E00
3600
6600
CC00
F800
C000
C400
CC00
7800
ENDCHAR
STARTCHAR igrave
ENCODING 236
SWIDTH 286 0
DWIDTH 5 0
BBX 5 14 0 0
BITMAP
18
18
18
18
00
38
30
30
30
60
60
40
F0
60
ENDCHAR
STARTCHAR iacute
ENCODING 237
SWIDTH 286 0
DWIDTH 5 0
BBX 6 14 0 0
BITMAP
0C
0C
18
30
00
38
30
30
30
60
60
40
F0
60
ENDCHAR
STARTCHAR icircumflex
ENCODING 238
SWIDTH 286 0
DWIDTH 5 0
BBX 7 14 0 0
BITMAP
04
0C
36
66
00
38
30
30
30
60
60
40
F0
60
ENDCHAR
STARTCHAR idieresis
ENCODING 239
SWIDTH 286 0
DWIDTH 5 0
BBX 8 14 0 0
BITMAP
77
77
22
00
00
38
30
30
30
60
60
40
F0
60
ENDCHAR
STARTCHAR eth
ENCODING 240
SWIDTH 524 0
DWIDTH 9 0
BBX 10 15 1 0
BITMAP
0200
0300
01C0
0780
0D00
0180
1D00
3300
6300
C300
C600
C600
CC00
D800
7000
ENDCHAR
STARTCHAR ntilde
ENCODING 241
SWIDTH 561 0
DWIDTH 10 0
BBX 10 14 0 0
BITMAP
0640
0B40
1180
0000
0000
3380
3780
3580
3980
3380
6300
6300
C200
C380
ENDCHAR
STARTCHAR ograve
ENCODING 242
SWIDTH 514 0
DWIDTH 9 0
BBX 8 14 1 0
BITMAP
0C
0C
04
06
00
1E
32
63
C3
C6
C6
CC
DC
70
ENDCHAR
STARTCHAR oacute
ENCODING 243
SWIDTH 514 0
DWIDTH 9 0
BBX 8 14 1 0
BITMAP
03
03
06
0C
00
1E
32
63
C3
C6
C6
CC
DC
70
ENDCHAR
STARTCHAR ocircumflex
ENCODING 244
SWIDTH 514 0
DWIDTH 9 0
BBX 9 14 1 0
BITMAP
0100
0700
0D00
1980
0000
1E00
3200
6300
C300
C600
C600
CC00
DC00
7000
ENDCHAR
STARTCHAR otilde
ENCODING 245
SWIDTH 514 0
DWIDTH 9 0
BBX 10 14 1 0
BITMAP
0C40
1680
1300
0000
0000
1E00
3200
6300
C300
C600
C600
CC00
DC00
7000
ENDCHAR
STARTCHAR odieresis
ENCODING 246
SWIDTH 514 0
DWIDTH 9 0
BBX 9 14 1 0
BITMAP
1980
1980
1080
0000
0000
1E00
3200
6300
C300
C600
C600
CC00
DC00
7000
ENDCHAR
STARTCHAR divide
ENCODING 247
SWIDTH 617 0
DWIDTH 11 0
BBX 9 9 1 2
BITMAP
0C00
0C00
0800
0000
FF80
0000
0000
1C00
0C00
ENDCHAR
STARTCHAR oslash
ENCODING 248
SWIDTH 514 0
DWIDTH 9 0
BBX 8 13 1 -2
BITMAP
01
03
1E
36
6B
CB
D6
D6
AC
DC
F0
80
80
ENDCHAR
STARTCHAR ugrave
ENCODING 249
SWIDTH 553 0
DWIDTH 10 0
BBX 10 14 0 0
BITMAP
0300
0300
0300
0100
0000
30C0
1980
3180
3380
6300
6700
4A00
F380
6380
ENDCHAR
STARTCHAR uacute
ENCODING 250
SWIDTH 553 0
DWIDTH 10 0
BBX 10 14 0 0
BITMAP
0080
0180
0300
0600
0000
30C0
19C0
3180
3380
7300
6700
6B00
DA00
6380
ENDCHAR
STARTCHAR ucircumflex
ENCODING 251
SWIDTH 553 0
DWIDTH 10 0
BBX 10 14 0 0
BITMAP
0080
0180
06C0
0CC0
0000
30C0
19C0
3180
3380
7300
6700
6B00
DA00
6380
ENDCHAR
STARTCHAR udieresis
ENCODING 252
SWIDTH 553 0
DWIDTH 10 0
BBX 11 14 0 0
BITMAP
0EE0
0EE0
0440
0000
0000
30C0
19C0
3180
3380
7300
6700
6B00
DA00
6380
ENDCHAR
STARTCHAR yacute
ENCODING 253
SWIDTH 549 0
DWIDTH 10 0
BBX 9 19 1 -5
BITMAP
0300
0300
0600
0C00
0000
7180
3180
6300
6300
E700
CE00
CE00
9600
E400
0C00
0800
1800
3000
E000
ENDCHAR
STARTCHAR thorn
ENCODING 254
SWIDTH 552 0
DWIDTH 10 0
BBX 11 20 -2 -5
BITMAP
0200
0300
0300
0300
0200
0600
07C0
0760
0E60
0C60
0860
18E0
18C0
1980
3700
3000
2000
6000
6000
C000
ENDCHAR
STARTCHAR ydieresis
ENCODING 255
SWIDTH 549 0
DWIDTH 10 0
BBX 9 19 1 -5
BITMAP
1980
1980
1100
0000
0000
7180
3180
6300
6300
E700
CE00
CE00
9600
E400
0C00
0800
1800
3000
E000
ENDCHAR
STARTCHAR Amacron
ENCODING 256
SWIDTH 615 0
DWIDTH 11 0
BBX 15 16 -2 0
BITMAP
007E
0000
001C
007C
00D8
0098
0110
0330
0230
07F8
1FF0
0860
1860
1060
3040
E070
ENDCHAR
STARTCHAR amacron
ENCODING 257
SWIDTH 543 0
DWIDTH 10 0
BBX 9 12 1 0
BITMAP
1F80
0000
0000
1D80
3300
6300
C600
C600
C600
CC00
D700
E700
ENDCHAR
STARTCHAR Abreve
ENCODING 258
SWIDTH 615 0
DWIDTH 11 0
BBX 15 18 -2 0
BITMAP
0022
0032
003C
0000
001C
007C
00D8
0098
0110
0330
0230
07F8
1FF0
0860
1860
1040
3070
E070
ENDCHAR
STARTCHAR abreve
ENCODING 259
SWIDTH 543 0
DWIDTH 10 0
BBX 9 14 1 0
BITMAP
0880
1980
0F00
0000
0000
1D80
3300
6300
C600
C600
C600
CC00
D700
E700
ENDCHAR
STARTCHAR Aogonek
ENCODING 260
SWIDTH 615 0
DWIDTH 11 0
BBX 14 18 -2 -4
BITMAP
001C
007C
00D8
0098
0110
0330
0230
07F8
1FF0
0860
1860
1040
3070
E070
0040
00C0
0180
00E0
ENDCHAR
STARTCHAR aogonek
ENCODING 261
SWIDTH 541 0
DWIDTH 10 0
BBX 9 13 1 -4
BITMAP
1D80
3300
6300
C600
C600
C600
CC00
D700
E700
0600
0C00
0800
0E00
ENDCHAR
STARTCHAR Cacute
ENCODING 262
SWIDTH 533 0
DWIDTH 10 0
BBX 11 18 1 0
BITMAP
0020
0060
00C0
0080
0780
0CC0
18C0
30C0
7180
6380
E000
C000
C000
C000
C000
C200
E600
7C00
ENDCHAR
STARTCHAR cacute
ENCODING 263
SWIDTH 468 0
DWIDTH 8 0
BBX 9 14 1 0
BITMAP
0180
0380
0300
0400
0000
1E00
3200
6600
C600
C400
C000
C000
CC00
7800
ENDCHAR
STARTCHAR Ccircumflex
ENCODING 264
SWIDTH 533 0
DWIDTH 10 0
BBX 11 18 1 0
BITMAP
0040
00C0
0760
0220
0780
0CC0
18C0
30C0
7180
6380
E000
C000
C000
C000
C000
C200
E600
7C00
ENDCHAR
STARTCHAR ccircumflex
ENCODING 265
SWIDTH 468 0
DWIDTH 8 0
BBX 9 14 1 0
BITMAP
0300
0700
0F00
3180
0000
1E00
3200
6600
C600
C400
C000
C000
CC00
7800
ENDCHAR
STARTCHAR Cdotaccent
ENCODING 266
SWIDTH 533 0
DWIDTH 10 0
BBX 10 17 1 0
BITMAP
0180
0180
0100
0780
0CC0
18C0
30C0
7180
6380
E000
C000
C000
C000
C000
C200
E600
7C00
ENDCHAR
STARTCHAR cdotaccent
ENCODING 267
SWIDTH 468 0
DWIDTH 8 0
BBX 7 14 1 0
BITMAP
06
06
04
00
00
1E
32
66
C6
C4
C0
C0
CC
78
ENDCHAR
STARTCHAR Ccaron
ENCODING 268
SWIDTH 533 0
DWIDTH 10 0
BBX 12 18 1 0
BITMAP
0010
0330
01C0
0000
0780
0CC0
18C0
30C0
7180
6380
E000
C000
C000
C000
C000
C200
E600
7C00
ENDCHAR
STARTCHAR ccaron
ENCODING 269
SWIDTH 468 0
DWIDTH 8 0
BBX 10 14 1 0
BITMAP
0840
0CC0
0F00
0400
0000
1E00
3200
6600
C600
C400
C000
C000
CC00
7800
ENDCHAR
STARTCHAR Dcaron
ENCODING 270
SWIDTH 630 0
DWIDTH 11 0
BBX 11 18 1 0
BITMAP
0020
0760
0380
0000
3F00
61C0
00C0
1860
3060
3060
70C0
60C0
61C0
C180
C300
C600
DC00
7000
ENDCHAR
STARTCHAR dcaron
ENCODING 271
SWIDTH 557 0
DWIDTH 10 0
BBX 14 15 1 0
BITMAP
006C
00CC
00C8
00D8
0190
0180
1D80
3300
6300
4300
C600
C600
CE00
DE80
F700
ENDCHAR
STARTCHAR Dcroat
ENCODING 272
SWIDTH 630 0
DWIDTH 11 0
BBX 12 14 0 0
BITMAP
1F80
30C0
2060
0C20
1830
1820
7E60
FC60
30E0
60C0
6180
6300
6E00
7800
ENDCHAR
STARTCHAR dcroat
ENCODING 273
SWIDTH 557 0
DWIDTH 10 0
BBX 11 15 1 0
BITMAP
0060
00C0
07E0
0080
0180
0180
1D80
3300
6300
4300
C600
C600
CE00
DE80
F700
ENDCHAR
STARTCHAR Emacron
ENCODING 274
SWIDTH 509 0
DWIDTH 9 0
BBX 10 16 1 0
BITMAP
0FC0
0000
0F80
1C80
30C0
7180
6300
6200
6000
3C00
7000
E000
C000
C200
CE00
7800
ENDCHAR
STARTCHAR emacron
ENCODING 275
SWIDTH 471 0
DWIDTH 8 0
BBX 8 12 1 0
BITMAP
3F
00
00
1E
36
66
C6
CC
F0
C0
C4
78
ENDCHAR
STARTCHAR Ebreve
ENCODING 276
SWIDTH 509 0
DWIDTH 9 0
BBX 10 18 1 0
BITMAP
0440
0440
0780
0000
0F80
1C80
30C0
7180
6300
6200
6000
3C00
7000
E000
C000
C200
CE00
7800
ENDCHAR
STARTCHAR ebreve
ENCODING 277
SWIDTH 471 0
DWIDTH 8 0
BBX 8 14 1 0
BITMAP
11
19
1E
00
00
1E
36
66
C6
CC
F0
C0
C4
78
ENDCHAR
STARTCHAR Edotaccent
ENCODING 278
SWIDTH 509 0
DWIDTH 9 0
BBX 10 17 1 0
BITMAP
0700
0700
0200
0F80
1C80
30C0
7180
6300
6200
6000
3C00
7000
E000
C000
C200
CE00
7800
ENDCHAR
STARTCHAR edotaccent
ENCODING 279
SWIDTH 471 0
DWIDTH 8 0
BBX 7 14 1 0
BITMAP
0C
0E
04
00
00
1E
36
66
C6
CC
F0
C0
C4
78
ENDCHAR
STARTCHAR Eogonek
ENCODING 280
SWIDTH 509 0
DWIDTH 9 0
BBX 10 18 1 -4
BITMAP
0F80
1C80
30C0
7180
6300
6200
6000
3C00
7000
E000
C000
C200
CE00
7800
3000
6000
6000
7000
ENDCHAR
STARTCHAR eogonek
ENCODING 281
SWIDTH 471 0
DWIDTH 8 0
BBX 7 13 1 -4
BITMAP
1E
36
66
C6
CC
F0
C0
C4
78
30
20
60
70
ENDCHAR
STARTCHAR Ecaron
ENCODING 282
SWIDTH 509 0
DWIDTH 9 0
BBX 10 18 1 0
BITMAP
0040
0EC0
0780
0000
0F80
1C80
30C0
7180
6300
6200
6000
3C00
7000
E000
C000
C200
CE00
7800
ENDCHAR
STARTCHAR ecaron
ENCODING 283
SWIDTH 471 0
DWIDTH 8 0
BBX 9 14 1 0
BITMAP
1880
1980
0F00
0C00
0000
1E00
3600
6600
C600
CC00
F000
C000
C400
7800
ENDCHAR
STARTCHAR Gcircumflex
ENCODING 284
SWIDTH 598 0
DWIDTH 11 0
BBX 11 18 1 0
BITMAP
0040
00C0
0760
0220
0780
0CC0
18C0
30C0
71C0
6380
6000
C000
C7C0
C380
C200
C200
E400
7800
ENDCHAR
STARTCHAR gcircumflex
ENCODING 285
SWIDTH 526 0
DWIDTH 9 0
BBX 9 19 1 -5
BITMAP
0100
0700
0D00
1980
0000
1D00
3380
6300
C300
C600
C600
CE00
DC00
EC00
0C00
0800
1800
3000
E000
ENDCHAR
STARTCHAR Gbreve
ENCODING 286
SWIDTH 598 0
DWIDTH 11 0
BBX 12 18 1 0
BITMAP
0110
0320
01C0
0000
0780
0CC0
18C0
30C0
71C0
6380
6000
C000
C7C0
C380
C200
C200
E400
7800
ENDCHAR
STARTCHAR gbreve
ENCODING 287
SWIDTH 526 0
DWIDTH 9 0
BBX 9 19 1 -5
BITMAP
0880
0880
0F00
0000
0000
1D00
3380
6300
C300
C600
C600
CE00
DC00
EC00
0C00
0800
1800
3000
E000
ENDCHAR
STARTCHAR Gdotaccent
ENCODING 288
SWIDTH 598 0
DWIDTH 11 0
BBX 10 17 1 0
BITMAP
0180
0180
0100
0780
0CC0
18C0
30C0
71C0
6380
6000
C000
C7C0
C380
C200
C200
E400
7800
ENDCHAR
STARTCHAR gdotaccent
ENCODING 289
SWIDTH 526 0
DWIDTH 9 0
BBX 9 19 1 -5
BITMAP
0600
0600
0400
0000
0000
1D00
3380
6300
C300
C600
C600
CE00
DC00
EC00
0C00
0800
1800
3000
E000
ENDCHAR
STARTCHAR Gcommaaccent
ENCODING 290
SWIDTH 598 0
DWIDTH 11 0
BBX 10 19 1 -5
BITMAP
0780
0CC0
18C0
30C0
71C0
6380
6380
C000
C000
C7C0
C380
C200
E600
7800
0000
6000
6000
6000
C000
ENDCHAR
STARTCHAR gcommaaccent
ENCODING 291
SWIDTH 526 0
DWIDTH 9 0
BBX 9 19 1 -5
BITMAP
0300
0600
0600
0400
0000
1D00
3380
6300
C300
C600
C600
CE00
DC00
EC00
0C00
0800
1800
3000
E000
ENDCHAR
STARTCHAR Hcircumflex
ENCODING 292
SWIDTH 668 0
DWIDTH 12 0
BBX 14 18 -1 0
BITMAP
0020
0060
03B0
0110
1E08
160C
0618
0618
0C18
0C30
0FF8
1820
1860
1860
3060
30C0
60D0
C060
ENDCHAR
STARTCHAR hcircumflex
ENCODING 293
SWIDTH 555 0
DWIDTH 10 0
BBX 9 18 0 0
BITMAP
0200
0600
1B00
3300
0C00
0C00
0C00
1800
1800
1B80
1780
3580
3980
7300
6300
6300
C600
C380
ENDCHAR
STARTCHAR Hbar
ENCODING 294
SWIDTH 668 0
DWIDTH 12 0
BBX 15 14 -1 0
BITMAP
1E08
160C
060C
0618
3FFE
0C10
0FF8
1830
1860
1860
3060
30C0
60C0
C070
ENDCHAR
STARTCHAR hbar
ENCODING 295
SWIDTH 555 0
DWIDTH 10 0
BBX 9 15 0 0
BITMAP
0C00
0C00
3F00
0C00
1800
1800
1B80
1780
3580
3980
7300
6300
6300
C600
C380
ENDCHAR
STARTCHAR Itilde
ENCODING 296
SWIDTH 327 0
DWIDTH 6 0
BBX 9 17 0 0
BITMAP
1C80
2700
0000
3C00
2C00
0C00
0C00
0C00
1C00
1800
1800
1800
3000
3000
6000
6000
C000
ENDCHAR
STARTCHAR itilde
ENCODING 297
SWIDTH 286 0
DWIDTH 5 0
BBX 8 14 0 0
BITMAP
39
49
4E
00
00
38
30
30
30
60
60
40
F0
60
ENDCHAR
STARTCHAR Imacron
ENCODING 298
SWIDTH 327 0
DWIDTH 6 0
BBX 9 16 0 0
BITMAP
3F80
0000
3C00
2C00
0C00
0C00
0C00
1C00
1800
1800
1800
3000
3000
6000
6000
C000
ENDCHAR
STARTCHAR imacron
ENCODING 299
SWIDTH 286 0
DWIDTH 5 0
BBX 7 12 0 0
BITMAP
7E
00
00
38
30
30
30
60
60
40
F0
60
ENDCHAR
STARTCHAR Ibreve
ENCODING 300
SWIDTH 327 0
DWIDTH 6 0
BBX 9 18 0 0
BITMAP
0880
1980
0F00
0000
3C00
2C00
0C00
0C00
0C00
1C00
1800
1800
1800
3000
3000
6000
6000
C000
ENDCHAR
STARTCHAR ibreve
ENCODING 301
SWIDTH 286 0
DWIDTH 5 0
BBX 8 14 0 0
BITMAP
21
32
3C
00
00
38
30
30
30
60
60
40
F0
60
ENDCHAR
STARTCHAR Iogonek
ENCODING 302
SWIDTH 327 0
DWIDTH 6 0
BBX 9 17 -3 -3
BITMAP
0780
0580
0180
0180
0180
0300
0300
0300
0600
0600
0C00
0C00
1800
3000
6000
C000
7000
ENDCHAR
STARTCHAR iogonek
ENCODING 303
SWIDTH 297 0
DWIDTH 5 0
BBX 6 18 0 -4
BITMAP
0C
1C
08
00
00
38
18
30
30
20
60
60
60
70
60
C0
80
E0
ENDCHAR
STARTCHAR Idotaccent
ENCODING 304
SWIDTH 327 0
DWIDTH 6 0
BBX 6 17 0 0
BITMAP
0C
0C
04
3C
2C
0C
0C
0C
1C
18
18
18
30
30
60
60
C0
ENDCHAR
STARTCHAR dotlessi
ENCODING 305
SWIDTH 286 0
DWIDTH 5 0
BBX 5 9 0 0
BITMAP
38
30
30
30
60
60
40
F0
60
ENDCHAR
STARTCHAR IJ
ENCODING 306
SWIDTH 720 0
DWIDTH 13 0
BBX 14 19 0 -5
BITMAP
3C78
2DDC
0D98
0C18
0C18
1C18
1830
1830
1830
3060
3060
60E0
60C0
C1C0
0180
0300
0600
0E00
1800
ENDCHAR
STARTCHAR ij
ENCODING 307
SWIDTH 567 0
DWIDTH 10 0
BBX 10 19 0 -5
BITMAP
1CC0
1CC0
0880
0000
0000
39C0
3180
3180
3180
6180
6180
4300
F300
6300
0600
0600
0C00
1800
3000
ENDCHAR
STARTCHAR Jcircumflex
ENCODING 308
SWIDTH 393 0
DWIDTH 7 0
BBX 12 22 -3 -5
BITMAP
0020
00F0
01B0
03C0
0E60
0CE0
00C0
00C0
00C0
01C0
0180
0180
0380
0300
0700
0600
0E00
0C00
1800
3800
7000
C000
ENDCHAR
STARTCHAR jcircumflex
ENCODING 309
SWIDTH 282 0
DWIDTH 5 0
BBX 10 19 -3 -5
BITMAP
0080
0380
0680
0CC0
0000
0600
0600
0600
0600
0600
0400
0C00
0C00
0800
1800
1000
3000
6000
C000
ENDCHAR
STARTCHAR Kcommaaccent
ENCODING 310
SWIDTH 616 0
DWIDTH 11 0
BBX 13 19 -1 -5
BITMAP
3C30
1618
0638
0C30
0C70
0CE0
0D80
1B00
1E00
1B00
3380
3180
60C0
C070
0000
1C00
0C00
0800
1000
ENDCHAR
STARTCHAR kcommaaccent
ENCODING 311
SWIDTH 497 0
DWIDTH 9 0
BBX 9 20 0 -5
BITMAP
0800
0C00
0C00
0C00
0800
1800
1980
1180
3380
3600
3800
7800
6C00
CF00
C700
0000
3000
3000
2000
4000
ENDCHAR
STARTCHAR kgreenlandic
ENCODING 312
SWIDTH 497 0
DWIDTH 9 0
BBX 9 9 0 0
BITMAP
3180
3180
3180
3700
3C00
7800
6C00
CC80
C700
ENDCHAR
STARTCHAR Lacute
ENCODING 313
SWIDTH 517 0
DWIDTH 9 0
BBX 11 18 0 0
BITMAP
0060
0060
00C0
0100
0380
0640
0C40
0CC0
19C0
1B80
3B00
3000
3000
6000
6000
4000
BF00
E100
ENDCHAR
STARTCHAR lacute
ENCODING 314
SWIDTH 279 0
DWIDTH 5 0
BBX 7 18 1 0
BITMAP
06
06
0C
08
10
18
30
30
30
20
60
60
40
C0
C0
C0
80
E0
ENDCHAR
STARTCHAR Lcommaaccent
ENCODING 315
SWIDTH 517 0
DWIDTH 9 0
BBX 10 19 0 -5
BITMAP
0380
0640
0C40
0CC0
19C0
1B80
3B00
3000
3000
6000
6000
4000
BF00
E100
0000
6000
2000
6000
C000
ENDCHAR
STARTCHAR lcommaaccent
ENCODING 316
SWIDTH 279 0
DWIDTH 5 0
BBX 6 20 0 -5
BITMAP
08
0C
0C
18
18
18
10
30
30
20
60
60
60
50
70
00
E0
60
40
80
ENDCHAR
STARTCHAR Lcaron
ENCODING 317
SWIDTH 517 0
DWIDTH 9 0
BBX 14 17 0 0
BITMAP
001C
000C
0008
0398
0650
0C40
0CC0
19C0
1B80
3B00
3000
3000
6000
6000
4000
BF00
E100
ENDCHAR
STARTCHAR lcaron
ENCODING 318
SWIDTH 467 0
DWIDTH 8 0
BBX 9 15 1 0
BITMAP
1980
1980
1980
3100
3200
3000
2000
6000
6000
4000
C000
C000
C000
A000
C000
ENDCHAR
STARTCHAR Ldot
ENCODING 319
SWIDTH 668 0
DWIDTH 12 0
BBX 12 14 0 0
BITMAP
0380
0640
0C40
0CC0
19C0
1B80
3B00
3030
3030
6000
6000
4000
BF00
E100
ENDCHAR
STARTCHAR ldot
ENCODING 320
SWIDTH 489 0
DWIDTH 9 0
BBX 8 15 1 0
BITMAP
18
18
18
30
30
30
20
64
67
46
C0
C0
C0
A0
C0
ENDCHAR
STARTCHAR Lslash
ENCODING 321
SWIDTH 517 0
DWIDTH 9 0
BBX 10 14 0 0
BITMAP
0380
0640
0C40
0CC0
18C0
1980
3B80
3100
7C00
E000
6000
4000
FF00
F300
ENDCHAR
STARTCHAR lslash
ENCODING 322
SWIDTH 279 0
DWIDTH 5 0
BBX 7 15 1 0
BITMAP
20
3E
18
30
30
30
20
60
60
40
C0
C0
C0
80
E0
ENDCHAR
STARTCHAR Nacute
ENCODING 323
SWIDTH 708 0
DWIDTH 13 0
BBX 14 17 0 0
BITMAP
0008
0018
0030
0318
070C
0A0C
1A0C
1608
3218
3310
2330
6320
6320
4340
C1C0
C1C0
4080
ENDCHAR
STARTCHAR nacute
ENCODING 324
SWIDTH 561 0
DWIDTH 10 0
BBX 9 14 0 0
BITMAP
0080
0180
0180
0600
0000
3380
3780
3580
3980
3380
6300
6300
C200
C380
ENDCHAR
STARTCHAR Ncommaaccent
ENCODING 325
SWIDTH 708 0
DWIDTH 13 0
BBX 14 19 0 -5
BITMAP
0318
070C
0A0C
1A0C
1608
3218
3310
2330
6320
6320
4340
C1C0
C1C0
4080
0000
0C00
0600
0400
0800
ENDCHAR
STARTCHAR ncommaaccent
ENCODING 326
SWIDTH 561 0
DWIDTH 10 0
BBX 9 14 0 -5
BITMAP
3380
3780
3580
3980
3380
6300
6300
C200
C380
0000
3000
3000
3000
6000
ENDCHAR
STARTCHAR Ncaron
ENCODING 327
SWIDTH 708 0
DWIDTH 13 0
BBX 14 17 0 0
BITMAP
00C4
0078
0020
0318
070C
0A0C
1A0C
1608
3218
3310
2330
6320
6320
4340
C1C0
C1C0
4080
ENDCHAR
STARTCHAR ncaron
ENCODING 328
SWIDTH 561 0
DWIDTH 10 0
BBX 11 14 0 0
BITMAP
0420
0660
0780
0200
0000
3380
3780
3580
3980
3380
6300
6300
C200
C380
ENDCHAR
STARTCHAR Eng
ENCODING 330
SWIDTH 698 0
DWIDTH 13 0
BBX 14 19 0 -5
BITMAP
0718
0E1C
0E0C
1E0C
1618
3618
2618
6710
6330
4330
4320
C1E0
C1C0
C1C0
0180
0300
0600
0C00
1800
ENDCHAR
STARTCHAR eng
ENCODING 331
SWIDTH 561 0
DWIDTH 10 0
BBX 9 14 0 -5
BITMAP
3380
3780
3580
3980
3180
6100
6300
C300
C600
0600
0C00
0800
1800
3000
ENDCHAR
STARTCHAR Omacron
ENCODING 332
SWIDTH 655 0
DWIDTH 12 0
BBX 12 16 1 0
BITMAP
07F0
0000
03C0
0C60
1860
3860
3060
6060
6060
E0C0
C0C0
C180
C180
C300
4600
3C00
ENDCHAR
STARTCHAR omacron
ENCODING 333
SWIDTH 514 0
DWIDTH 9 0
BBX 9 12 1 0
BITMAP
1F80
0000
0000
1E00
3200
6300
C300
C600
C600
CC00
DC00
7000
ENDCHAR
STARTCHAR Obreve
ENCODING 334
SWIDTH 655 0
DWIDTH 12 0
BBX 12 18 1 0
BITMAP
0110
0330
01E0
0000
03C0
0C60
1860
3860
3060
6060
6060
E0C0
C0C0
C180
C180
C300
4600
3C00
ENDCHAR
STARTCHAR obreve
ENCODING 335
SWIDTH 514 0
DWIDTH 9 0
BBX 9 14 1 0
BITMAP
0880
0880
0F00
0000
0000
1E00
3200
6300
C300
C600
C600
CC00
DC00
7000
ENDCHAR
STARTCHAR Ohungarumlaut
ENCODING 336
SWIDTH 655 0
DWIDTH 12 0
BBX 12 17 1 0
BITMAP
0090
01B0
0360
03C0
0C60
1860
3860
3060
6060
6060
E0C0
C0C0
C180
C180
C300
4600
3C00
ENDCHAR
STARTCHAR ohungarumlaut
ENCODING 337
SWIDTH 514 0
DWIDTH 9 0
BBX 9 14 1 0
BITMAP
0480
0D80
0900
1200
0000
1E00
3200
6300
C300
C600
C600
CC00
DC00
7000
ENDCHAR
STARTCHAR OE
ENCODING 338
SWIDTH 900 0
DWIDTH 16 0
BBX 16 14 2 0
BITMAP
07DF
0C79
1861
30E3
70C6
60C4
60C0
C078
C0E0
C1C0
C180
C38C
4798
7CF0
ENDCHAR
STARTCHAR oe
ENCODING 339
SWIDTH 777 0
DWIDTH 14 0
BBX 13 9 1 0
BITMAP
1E70
33D8
6398
6318
C330
C7C0
C700
CF10
79E0
ENDCHAR
STARTCHAR Racute
ENCODING 340
SWIDTH 623 0
DWIDTH 11 0
BBX 12 17 -1 0
BITMAP
0030
0060
00C0
07C0
1C30
1230
0630
0630
0C70
0CE0
1FC0
1F00
1B00
3180
3180
60C0
C070
ENDCHAR
STARTCHAR racute
ENCODING 341
SWIDTH 407 0
DWIDTH 7 0
BBX 8 14 0 0
BITMAP
01
03
02
0C
00
33
37
3D
38
30
60
60
C0
C0
ENDCHAR
STARTCHAR Rcommaaccent
ENCODING 342
SWIDTH 623 0
DWIDTH 11 0
BBX 12 19 -1 -5
BITMAP
07C0
1C30
1230
0630
0630
0C70
0CE0
1FC0
1F00
1B00
3180
3180
60C0
C070
0000
1800
0800
1800
1000
ENDCHAR
STARTCHAR rcommaaccent
ENCODING 343
SWIDTH 407 0
DWIDTH 7 0
BBX 9 14 -1 -5
BITMAP
1980
1B80
1E80
1C00
1800
3000
3000
6000
6000
0000
E000
6000
4000
8000
ENDCHAR
STARTCHAR Rcaron
ENCODING 344
SWIDTH 623 0
DWIDTH 11 0
BBX 12 18 -1 0
BITMAP
0010
03B0
00E0
0000
07C0
1C30
1230
0630
0630
0C70
0CE0
1FC0
1F00
1B00
3180
3180
60C0
C070
ENDCHAR
STARTCHAR rcaron
ENCODING 345
SWIDTH 407 0
DWIDTH 7 0
BBX 10 14 0 0
BITMAP
0840
0CC0
0F00
0400
0000
3300
3700
3D00
3800
3000
6000
6000
C000
C000
ENDCHAR
STARTCHAR Sacute
ENCODING 346
SWIDTH 474 0
DWIDTH 9 0
BBX 11 18 0 0
BITMAP
0040
0060
00C0
0100
0780
1880
18C0
30C0
31C0
3380
3900
1800
1C00
0C00
4600
C400
C400
7800
ENDCHAR
STARTCHAR sacute
ENCODING 347
SWIDTH 423 0
DWIDTH 8 0
BBX 9 14 0 0
BITMAP
0180
0300
0300
0400
0000
1E00
3300
3200
3000
3800
1800
4C00
C800
7000
ENDCHAR
STARTCHAR Scircumflex
ENCODING 348
SWIDTH 474 0
DWIDTH 9 0
BBX 11 18 0 0
BITMAP
0080
01C0
0340
0420
0780
1880
18C0
30C0
31C0
3380
3900
1800
1C00
0C00
4600
C400
C400
7800
ENDCHAR
STARTCHAR scircumflex
ENCODING 349
SWIDTH 423 0
DWIDTH 8 0
BBX 9 14 0 0
BITMAP
0100
0300
0D00
1980
0000
1E00
3300
3200
3000
3800
1800
4C00
C800
7000
ENDCHAR
STARTCHAR Scedilla
ENCODING 350
SWIDTH 474 0
DWIDTH 9 0
BBX 10 18 0 -4
BITMAP
0780
18C0
18C0
30C0
31C0
3380
3800
1800
0C00
0C00
4600
C400
7C00
3000
1000
3000
7000
2000
ENDCHAR
STARTCHAR scedilla
ENCODING 351
SWIDTH 423 0
DWIDTH 8 0
BBX 8 13 0 -4
BITMAP
1E
33
32
30
38
18
CC
C8
78
20
20
60
E0
ENDCHAR
STARTCHAR Scaron
ENCODING 352
SWIDTH 474 0
DWIDTH 9 0
BBX 11 18 0 0
BITMAP
0020
0760
03C0
0000
0780
1880
18C0
30C0
31C0
3380
3900
1800
1C00
0C00
4600
C400
C400
7800
ENDCHAR
STARTCHAR scaron
ENCODING 353
SWIDTH 423 0
DWIDTH 8 0
BBX 10 14 0 0
BITMAP
0C40
0CC0
0780
0600
0000
1E00
3300
3200
3000
3800
1800
4C00
C800
7000
ENDCHAR
STARTCHAR Tcommaaccent
ENCODING 354
SWIDTH 471 0
DWIDTH 8 0
BBX 10 19 1 -5
BITMAP
7840
FE40
C7C0
CC00
0C00
0C00
1C00
1800
1800
1800
3000
3000
6000
C000
0000
6000
6000
4000
8000
ENDCHAR
STARTCHAR tcommaaccent
ENCODING 355
SWIDTH 358 0
DWIDTH 6 0
BBX 7 16 0 -5
BITMAP
0C
18
7E
30
30
20
60
60
64
78
70
00
60
60
40
80
ENDCHAR
STARTCHAR Tcaron
ENCODING 356
SWIDTH 471 0
DWIDTH 8 0
BBX 11 18 1 0
BITMAP
0020
0660
0380
0000
7C40
FFC0
C600
4C00
0C00
0C00
1800
1800
1800
3000
3000
3000
6000
C000
ENDCHAR
STARTCHAR tcaron
ENCODING 357
SWIDTH 497 0
DWIDTH 9 0
BBX 9 15 2 0
BITMAP
0180
0180
0100
1300
3200
3000
FC00
6000
4000
C000
C000
C000
8000
F000
E000
ENDCHAR
STARTCHAR Tbar
ENCODING 358
SWIDTH 471 0
DWIDTH 8 0
BBX 10 14 1 0
BITMAP
7C40
FFC0
C600
CC00
0C00
0C00
0C00
FE00
1800
1800
3000
3000
6000
C000
ENDCHAR
STARTCHAR tbar
ENCODING 359
SWIDTH 358 0
DWIDTH 6 0
BBX 7 12 0 0
BITMAP
08
0C
18
7E
30
30
FE
60
60
64
78
70
ENDCHAR
STARTCHAR Utilde
ENCODING 360
SWIDTH 624 0
DWIDTH 11 0
BBX 12 17 0 0
BITMAP
0390
04E0
0000
1C10
0C30
0C30
1860
1860
18E0
30C0
31C0
61C0
62C0
6380
C580
C980
70E0
ENDCHAR
STARTCHAR utilde
ENCODING 361
SWIDTH 553 0
DWIDTH 10 0
BBX 11 14 0 0
BITMAP
0720
0920
09C0
0000
0000
30C0
19C0
3180
3380
7300
6700
6B00
DA00
6380
ENDCHAR
STARTCHAR Umacron
ENCODING 362
SWIDTH 624 0
DWIDTH 11 0
BBX 12 16 0 0
BITMAP
07F0
0000
1C10
0C30
0C30
1860
1860
18E0
30C0
31C0
61C0
62C0
6380
C580
C980
70E0
ENDCHAR
STARTCHAR umacron
ENCODING 363
SWIDTH 553 0
DWIDTH 10 0
BBX 10 12 0 0
BITMAP
0FC0
0000
0000
30C0
19C0
3180
3380
7300
6700
6B00
DA00
6380
ENDCHAR
STARTCHAR Ubreve
ENCODING 364
SWIDTH 624 0
DWIDTH 11 0
BBX 12 18 0 0
BITMAP
0110
0330
01E0
0000
1C10
0C30
0C30
1860
1860
18E0
30C0
31C0
61C0
62C0
6380
C580
C980
70E0
ENDCHAR
STARTCHAR ubreve
ENCODING 365
SWIDTH 553 0
DWIDTH 10 0
BBX 11 14 0 0
BITMAP
0620
0640
0380
0000
0000
30C0
19C0
3180
3380
7300
6700
6B00
DA00
6380
ENDCHAR
STARTCHAR Uring
ENCODING 366
SWIDTH 624 0
DWIDTH 11 0
BBX 12 18 0 0
BITMAP
00E0
01A0
0120
0360
1DD0
0C30
0C30
1860
1860
18E0
30C0
31C0
61C0
63C0
6380
C580
C980
70E0
ENDCHAR
STARTCHAR uring
ENCODING 367
SWIDTH 553 0
DWIDTH 10 0
BBX 10 14 0 0
BITMAP
03C0
06C0
06C0
0780
0000
30C0
19C0
3180
3380
7300
6700
6B00
DA00
6380
ENDCHAR
STARTCHAR Uhungarumlaut
ENCODING 368
SWIDTH 624 0
DWIDTH 11 0
BBX 12 17 0 0
BITMAP
0090
01B0
0360
1C10
0C30
0C30
1860
1860
18E0
30C0
31C0
61C0
62C0
6380
C580
C980
70E0
ENDCHAR
STARTCHAR uhungarumlaut
ENCODING 369
SWIDTH 553 0
DWIDTH 10 0
BBX 11 14 0 0
BITMAP
0360
0260
06C0
0D80
0000
30C0
19C0
3180
3380
7300
6700
6B00
DA00
6380
ENDCHAR
STARTCHAR Uogonek
ENCODING 370
SWIDTH 684 0
DWIDTH 12 0
BBX 12 18 1 -4
BITMAP
1830
1C30
1860
1860
18E0
30C0
31C0
61C0
6380
E380
C580
C980
D980
E1C0
0180
0300
0300
0380
ENDCHAR
STARTCHAR uogonek
ENCODING 371
SWIDTH 553 0
DWIDTH 10 0
BBX 10 13 0 -4
BITMAP
30C0
19C0
3180
3380
7300
6700
6B00
DA00
6380
0300
0600
0400
0700
ENDCHAR
STARTCHAR Wcircumflex
ENCODING 372
SWIDTH 941 0
DWIDTH 17 0
BBX 17 18 1 0
BITMAP
001000
003800
00F800
008C00
780300
F80380
4C0180
187180
18E180
31C180
33C300
638300
658200
4D8600
D98400
D18800
E19000
60E000
ENDCHAR
STARTCHAR wcircumflex
ENCODING 373
SWIDTH 750 0
DWIDTH 14 0
BBX 12 14 1 0
BITMAP
0080
01C0
03C0
0C40
0000
6030
7330
6330
6630
4E30
CC20
D440
E6C0
C700
ENDCHAR
STARTCHAR Ycircumflex
ENCODING 374
SWIDTH 580 0
DWIDTH 10 0
BBX 12 22 0 -5
BITMAP
00C0
01E0
0360
1C10
0C30
0C30
1860
1860
38E0
30C0
31C0
61C0
6280
6380
C500
CB00
7300
0600
0C00
0C00
1800
6000
ENDCHAR
STARTCHAR ycircumflex
ENCODING 375
SWIDTH 549 0
DWIDTH 10 0
BBX 9 19 1 -5
BITMAP
0100
0700
0D00
1980
0000
7180
3180
6300
6300
E700
CE00
CE00
9600
E400
0C00
0800
1800
3000
E000
ENDCHAR
STARTCHAR Ydieresis
ENCODING 376
SWIDTH 580 0
DWIDTH 10 0
BBX 12 22 0 -5
BITMAP
0330
0770
0220
1C10
0C30
0C30
1860
1860
38E0
30C0
31C0
61C0
6280
6380
C500
CB00
7300
0600
0C00
0C00
1800
6000
ENDCHAR
STARTCHAR Zacute
ENCODING 377
SWIDTH 501 0
DWIDTH 9 0
BBX 11 18 0 0
BITMAP
00C0
00C0
0180
0100
20C0
3FE0
1CC0
0180
0380
0700
0E00
1C00
1800
3000
6000
CF00
FF00
E100
ENDCHAR
STARTCHAR zacute
ENCODING 378
SWIDTH 430 0
DWIDTH 8 0
BBX 9 14 0 0
BITMAP
0180
0180
0300
0600
0000
3300
1F00
0600
0C00
1800
3000
6000
FC00
E600
ENDCHAR
STARTCHAR Zdotaccent
ENCODING 379
SWIDTH 501 0
DWIDTH 9 0
BBX 11 17 0 0
BITMAP
0300
0300
0200
20C0
3FE0
1CC0
0180
0380
0700
0E00
1C00
1800
3000
6000
C600
FF00
E100
ENDCHAR
STARTCHAR zdotaccent
ENCODING 380
SWIDTH 430 0
DWIDTH 8 0
BBX 8 14 0 0
BITMAP
06
0E
04
00
00
33
1F
06
0C
18
30
60
FC
E6
ENDCHAR
STARTCHAR Zcaron
ENCODING 381
SWIDTH 501 0
DWIDTH 9 0
BBX 11 18 0 0
BITMAP
0020
0660
0380
0000
20C0
3FE0
1CC0
0180
0380
0700
0E00
1C00
1800
3000
6000
CF00
FF00
E100
ENDCHAR
STARTCHAR zcaron
ENCODING 382
SWIDTH 430 0
DWIDTH 8 0
BBX 10 14 0 0
BITMAP
0840
0D80
0F00
0C00
0000
3300
1F00
0600
0C00
1800
3000
6000
FC00
E600
ENDCHAR
STARTCHAR florin
ENCODING 402
SWIDTH 466 0
DWIDTH 8 0
BBX 14 19 -3 -5
BITMAP
0038
0068
00CC
0098
0198
0180
03E0
07E0
0B00
0200
0600
0600
0600
0C00
0C00
0C00
9800
9800
F000
ENDCHAR
STARTCHAR AEacute
ENCODING 508
SWIDTH 878 0
DWIDTH 16 0
BBX 18 18 -1 0
BITMAP
000200
000300
000600
000800
003F80
00DC40
01B840
0130C0
033380
063100
043000
0FFC00
3FF800
187000
306000
30C200
606600
C07C00
ENDCHAR
STARTCHAR aeacute
ENCODING 509
SWIDTH 770 0
DWIDTH 14 0
BBX 13 14 1 0
BITMAP
00C0
00C0
0180
0300
0000
1DF0
3398
6338
C730
C670
C7C0
CE00
D630
E3E0
ENDCHAR
STARTCHAR Scommaaccent
ENCODING 536
SWIDTH 474 0
DWIDTH 9 0
BBX 10 19 0 -5
BITMAP
0780
1880
18C0
30C0
31C0
3380
3900
1800
1C00
0C00
4600
C400
C400
7800
0000
3000
3000
2000
4000
ENDCHAR
STARTCHAR scommaaccent
ENCODING 537
SWIDTH 423 0
DWIDTH 8 0
BBX 8 14 0 -5
BITMAP
1E
33
32
30
38
18
4C
C8
70
00
60
60
60
C0
ENDCHAR
STARTCHAR dotlessj
ENCODING 567
SWIDTH 277 0
DWIDTH 5 0
BBX 7 14 -3 -5
BITMAP
06
06
06
06
06
04
0C
0C
18
18
10
30
60
C0
ENDCHAR
STARTCHAR circumflex
ENCODING 710
SWIDTH 354 0
DWIDTH 6 0
BBX 6 4 0 10
BITMAP
08
1C
3C
C4
ENDCHAR
STARTCHAR caron
ENCODING 711
SWIDTH 381 0
DWIDTH 7 0
BBX 6 4 1 10
BITMAP
C4
D8
70
40
ENDCHAR
STARTCHAR breve
ENCODING 728
SWIDTH 344 0
DWIDTH 6 0
BBX 5 3 1 11
BITMAP
88
C8
F0
ENDCHAR
STARTCHAR dotaccent
ENCODING 729
SWIDTH 217 0
DWIDTH 4 0
BBX 3 3 1 11
BITMAP
E0
E0
40
ENDCHAR
STARTCHAR ring
ENCODING 730
SWIDTH 402 0
DWIDTH 7 0
BBX 5 5 2 9
BITMAP
38
48
C8
D8
70
ENDCHAR
STARTCHAR ogonek
ENCODING 731
SWIDTH 311 0
DWIDTH 6 0
BBX 4 5 1 -4
BITMAP
30
40
C0
C0
E0
ENDCHAR
STARTCHAR tilde
ENCODING 732
SWIDTH 397 0
DWIDTH 7 0
BBX 7 2 1 12
BITMAP
72
9C
ENDCHAR
STARTCHAR hungarumlaut
ENCODING 733
SWIDTH 392 0
DWIDTH 7 0
BBX 7 4 0 10
BITMAP
12
36
64
C8
ENDCHAR
STARTCHAR pi
ENCODING 960
SWIDTH 640 0
DWIDTH 12 0
BBX 12 9 0 0
BITMAP
3FF0
48C0
0980
1980
1100
3300
6300
E3C0
C180
ENDCHAR
STARTCHAR uni1E02
ENCODING 7682
SWIDTH 551 0
DWIDTH 10 0
BBX 10 17 1 0
BITMAP
0300
0700
0200
3F00
7180
50C0
38C0
31C0
7180
6700
7E00
C600
C300
C300
8600
CC00
7800
ENDCHAR
STARTCHAR uni1E03
ENCODING 7683
SWIDTH 525 0
DWIDTH 9 0
BBX 9 15 1 0
BITMAP
1800
1180
3380
3100
3000
2000
6E00
7300
6300
E300
C700
C600
8E00
9C00
7000
ENDCHAR
STARTCHAR uni1E0A
ENCODING 7690
SWIDTH 630 0
DWIDTH 11 0
BBX 11 17 1 0
BITMAP
0300
0300
0200
3F00
61C0
00C0
1860
3060
3060
70C0
60C0
61C0
C180
C300
C600
DC00
7000
ENDCHAR
STARTCHAR uni1E0B
ENCODING 7691
SWIDTH 557 0
DWIDTH 10 0
BBX 11 15 1 0
BITMAP
0060
18C0
38C0
10C0
0180
0180
1D80
3300
6300
4300
C600
C600
CE00
DE80
F700
ENDCHAR
STARTCHAR uni1E1E
ENCODING 7710
SWIDTH 518 0
DWIDTH 9 0
BBX 10 17 1 0
BITMAP
0380
0380
0100
7C40
FFC0
CC00
8C00
0800
1800
1E00
3F00
7000
3000
6000
6000
C000
8000
ENDCHAR
STARTCHAR uni1E1F
ENCODING 7711
SWIDTH 393 0
DWIDTH 7 0
BBX 10 20 0 -2
BITMAP
0300
0700
0200
0380
06C0
0CC0
0D80
0C80
1800
1800
3F00
7000
3000
3000
2000
6000
6000
4000
C000
C000
ENDCHAR
STARTCHAR uni1E40
ENCODING 7744
SWIDTH 931 0
DWIDTH 17 0
BBX 19 17 -2 0
BITMAP
000380
000300
000100
0030E0
00F1E0
00B140
0162C0
0366C0
026580
066D80
04C980
0CD980
18D300
18F300
30E300
60E300
C0C1C0
ENDCHAR
STARTCHAR uni1E41
ENCODING 7745
SWIDTH 814 0
DWIDTH 15 0
BBX 14 14 0 0
BITMAP
00C0
00C0
0080
0000
0000
3B9C
37BC
34EC
39C8
3198
6310
6330
C63C
C618
ENDCHAR
STARTCHAR uni1E56
ENCODING 7766
SWIDTH 553 0
DWIDTH 10 0
BBX 12 17 -1 0
BITMAP
0060
00E0
0040
07C0
1C30
1830
0630
0630
0C70
0CE0
1DC0
1F00
1800
3000
3000
6000
C000
ENDCHAR
STARTCHAR uni1E57
ENCODING 7767
SWIDTH 550 0
DWIDTH 10 0
BBX 10 19 -1 -5
BITMAP
0380
0380
0100
0000
0000
3B80
1EC0
1CC0
18C0
30C0
31C0
3180
3300
6E00
6000
6000
C000
C000
8000
ENDCHAR
STARTCHAR uni1E60
ENCODING 7776
SWIDTH 474 0
DWIDTH 9 0
BBX 10 17 0 0
BITMAP
0380
0380
0100
0780
1880
18C0
30C0
31C0
3380
3900
1800
1C00
0C00
4600
C400
C400
7800
ENDCHAR
STARTCHAR uni1E61
ENCODING 7777
SWIDTH 423 0
DWIDTH 8 0
BBX 8 14 0 0
BITMAP
06
07
02
00
00
1E
33
32
30
38
18
4C
C8
70
ENDCHAR
STARTCHAR uni1E6A
ENCODING 7786
SWIDTH 430 0
DWIDTH 8 0
BBX 10 17 1 0
BITMAP
0300
0700
0200
7840
FF80
CC00
8C00
0C00
1800
1800
1800
3000
3000
3000
6000
4000
C000
ENDCHAR
STARTCHAR uni1E6B
ENCODING 7787
SWIDTH 358 0
DWIDTH 6 0
BBX 7 14 1 0
BITMAP
0C
0C
08
18
18
7E
30
60
60
60
40
C0
F8
70
ENDCHAR
STARTCHAR Wgrave
ENCODING 7808
SWIDTH 941 0
DWIDTH 17 0
BBX 17 18 1 0
BITMAP
004000
004000
006000
001000
780300
F80380
4C0180
187180
18E180
31C180
33C300
678300
658200
4D8600
D98C00
D18800
E1B000
60E000
ENDCHAR
STARTCHAR wgrave
ENCODING 7809
SWIDTH 750 0
DWIDTH 14 0
BBX 12 14 1 0
BITMAP
0300
0300
0300
0100
0000
6030
7330
6330
6630
4E30
CC20
D440
E6C0
C700
ENDCHAR
STARTCHAR Wacute
ENCODING 7810
SWIDTH 941 0
DWIDTH 17 0
BBX 17 18 1 0
BITMAP
000800
001800
001800
002000
780300
F80380
4C0180
187180
18E180
31C180
33C300
638300
658200
4D8600
D98400
D18800
E19000
60E000
ENDCHAR
STARTCHAR wacute
ENCODING 7811
SWIDTH 750 0
DWIDTH 14 0
BBX 12 14 1 0
BITMAP
0080
0180
0180
0200
0000
6030
7330
6330
6630
4E30
CC20
D440
E6C0
C700
ENDCHAR
STARTCHAR Wdieresis
ENCODING 7812
SWIDTH 941 0
DWIDTH 17 0
BBX 17 17 1 0
BITMAP
00CC00
01CC00
008800
780300
F80380
4C0180
187180
18E180
31C180
33C300
678300
658200
4D8600
D98C00
D18800
E1B000
60E000
ENDCHAR
STARTCHAR wdieresis
ENCODING 7813
SWIDTH 750 0
DWIDTH 14 0
BBX 12 14 1 0
BITMAP
0E60
0EE0
0440
0000
0000
6030
7330
6330
6630
4E30
CC20
D440
E6C0
C700
ENDCHAR
STARTCHAR Ygrave
ENCODING 7922
SWIDTH 580 0
DWIDTH 10 0
BBX 12 23 0 -5
BITMAP
0100
0300
0180
00C0
1C10
0C30
0C30
1860
1860
38E0
30C0
31C0
61C0
6280
6380
C500
CB00
7300
0600
0C00
0C00
1800
6000
ENDCHAR
STARTCHAR ygrave
ENCODING 7923
SWIDTH 549 0
DWIDTH 10 0
BBX 9 19 1 -5
BITMAP
0C00
0C00
0C00
0600
0000
7180
3180
6300
6300
E700
CE00
CE00
9600
E400
0C00
0800
1800
3000
E000
ENDCHAR
STARTCHAR endash
ENCODING 8211
SWIDTH 751 0
DWIDTH 14 0
BBX 10 1 2 5
BITMAP
FFC0
ENDCHAR
STARTCHAR emdash
ENCODING 8212
SWIDTH 1066 0
DWIDTH 19 0
BBX 16 1 2 5
BITMAP
FFFF
ENDCHAR
STARTCHAR quoteleft
ENCODING 8216
SWIDTH 268 0
DWIDTH 5 0
BBX 4 5 2 10
BITMAP
10
60
40
E0
60
ENDCHAR
STARTCHAR quoteright
ENCODING 8217
SWIDTH 268 0
DWIDTH 5 0
BBX 3 5 3 10
BITMAP
40
E0
60
40
80
ENDCHAR
STARTCHAR quotesinglbase
ENCODING 8218
SWIDTH 268 0
DWIDTH 5 0
BBX 3 5 0 -2
BITMAP
20
60
60
60
C0
ENDCHAR
STARTCHAR quotedblleft
ENCODING 8220
SWIDTH 485 0
DWIDTH 9 0
BBX 6 5 3 10
BITMAP
24
4C
D8
D8
D8
ENDCHAR
STARTCHAR quotedblright
ENCODING 8221
SWIDTH 480 0
DWIDTH 9 0
BBX 7 5 3 10
BITMAP
44
6E
64
4C
98
ENDCHAR
STARTCHAR quotedblbase
ENCODING 8222
SWIDTH 463 0
DWIDTH 8 0
BBX 7 5 0 -2
BITMAP
24
6E
66
64
C8
ENDCHAR
STARTCHAR dagger
ENCODING 8224
SWIDTH 488 0
DWIDTH 9 0
BBX 7 14 2 0
BITMAP
18
18
18
FE
7C
30
30
30
60
60
40
C0
80
80
ENDCHAR
STARTCHAR daggerdbl
ENCODING 8225
SWIDTH 488 0
DWIDTH 9 0
BBX 8 14 1 0
BITMAP
0C
0C
0C
7F
1C
18
18
32
FC
30
20
60
40
40
ENDCHAR
STARTCHAR bullet
ENCODING 8226
SWIDTH 437 0
DWIDTH 8 0
BBX 4 4 2 4
BITMAP
70
F0
F0
F0
ENDCHAR
STARTCHAR ellipsis
ENCODING 8230
SWIDTH 810 0
DWIDTH 15 0
BBX 13 3 0 0
BITMAP
6338
E738
6210
ENDCHAR
STARTCHAR perthousand
ENCODING 8240
SWIDTH 1184 0
DWIDTH 21 0
BBX 19 14 1 0
BITMAP
382000
6C6000
6CC000
CC8000
CD8000
DB0000
730000
060000
0471C0
0D9360
199260
113660
3136C0
61E380
ENDCHAR
STARTCHAR guilsinglleft
ENCODING 8249
SWIDTH 413 0
DWIDTH 7 0
BBX 6 7 1 2
BITMAP
0C
18
70
C0
60
30
18
ENDCHAR
STARTCHAR guilsinglright
ENCODING 8250
SWIDTH 416 0
DWIDTH 8 0
BBX 5 7 1 2
BITMAP
60
30
18
18
38
60
80
ENDCHAR
STARTCHAR fraction
ENCODING 8260
SWIDTH 580 0
DWIDTH 10 0
BBX 9 15 1 0
BITMAP
0080
0180
0100
0300
0600
0400
0C00
0800
1800
3000
3000
6000
4000
C000
8000
ENDCHAR
STARTCHAR Euro
ENCODING 8364
SWIDTH 622 0
DWIDTH 11 0
BBX 11 14 1 0
BITMAP
01C0
0760
0C60
1C60
18C0
3880
7E00
3000
3000
FE00
6000
7000
3100
1E00
ENDCHAR
STARTCHAR trademark
ENCODING 8482
SWIDTH 1084 0
DWIDTH 20 0
BBX 15 8 3 6
BITMAP
2044
FECE
315C
21D4
62EC
62EC
64CC
2844
ENDCHAR
STARTCHAR Omega
ENCODING 8486
SWIDTH 839 0
DWIDTH 15 0
BBX 13 14 1 0
BITMAP
0200
1FC0
3060
6030
6038
E018
C018
E018
6038
6030
3030
3060
C8D8
FDF8
ENDCHAR
STARTCHAR partialdiff
ENCODING 8706
SWIDTH 580 0
DWIDTH 10 0
BBX 10 14 0 0
BITMAP
0780
0C40
0C40
0040
0F40
19C0
30C0
71C0
6180
6180
E300
4700
6E00
3800
ENDCHAR
STARTCHAR Delta
ENCODING 8710
SWIDTH 663 0
DWIDTH 12 0
BBX 11 11 0 0
BITMAP
0200
0600
0700
0900
1980
1180
30C0
20C0
6060
4060
FFE0
ENDCHAR
STARTCHAR product
ENCODING 8719
SWIDTH 667 0
DWIDTH 12 0
BBX 10 16 1 -2
BITMAP
3F80
C0C0
C0C0
C0C0
C0C0
C0C0
C0C0
C0C0
C0C0
C0C0
C0C0
C0C0
C0C0
C0C0
C0C0
4080
ENDCHAR
STARTCHAR summation
ENCODING 8721
SWIDTH 677 0
DWIDTH 12 0
BBX 10 16 1 -2
BITMAP
3FC0
7F80
6000
7000
3800
1C00
0C00
0E00
0400
0C00
1800
3000
6000
C000
FFC0
FF80
ENDCHAR
STARTCHAR minus
ENCODING 8722
SWIDTH 617 0
DWIDTH 11 0
BBX 9 1 1 6
BITMAP
FF80
ENDCHAR
STARTCHAR radical
ENCODING 8730
SWIDTH 709 0
DWIDTH 13 0
BBX 13 17 1 0
BITMAP
0008
0018
0018
0038
0030
0060
0060
00C0
60C0
7180
B100
3300
3200
1600
1C00
1C00
1800
ENDCHAR
STARTCHAR infinity
ENCODING 8734
SWIDTH 681 0
DWIDTH 12 0
BBX 11 5 1 4
BITMAP
73C0
CF60
8C60
9EC0
7BC0
ENDCHAR
STARTCHAR integral
ENCODING 8747
SWIDTH 583 0
DWIDTH 11 0
BBX 15 20 -2 -3
BITMAP
001C
003C
0066
0064
00CC
00C0
00C0
0180
0180
0180
0300
0300
0300
0300
0600
0600
6400
CC00
5800
7800
ENDCHAR
STARTCHAR approxequal
ENCODING 8776
SWIDTH 671 0
DWIDTH 12 0
BBX 10 8 1 2
BITMAP
3C40
7E40
4780
4300
3840
7CC0
8F80
8700
ENDCHAR
STARTCHAR notequal
ENCODING 8800
SWIDTH 617 0
DWIDTH 11 0
BBX 9 11 1 1
BITMAP
0180
0300
0200
FF80
0C00
0800
7F80
FF80
3000
6000
4000
ENDCHAR
STARTCHAR lessequal
ENCODING 8804
SWIDTH 704 0
DWIDTH 13 0
BBX 9 12 1 0
BITMAP
0080
0300
0E00
3800
E000
6000
3800
0E00
0380
0080
0000
FF80
ENDCHAR
STARTCHAR greaterequal
ENCODING 8805
SWIDTH 617 0
DWIDTH 11 0
BBX 9 12 1 0
BITMAP
C000
7000
1C00
0600
0380
0700
0C00
3000
E000
8000
0000
FF80
ENDCHAR
STARTCHAR lozenge
ENCODING 9674
SWIDTH 580 0
DWIDTH 10 0
BBX 9 14 1 0
BITMAP
0800
1800
1C00
2400
6600
4300
C300
8180
C300
6200
2600
3400
1C00
1800
ENDCHAR
STARTCHAR commaaccent
ENCODING 63171
SWIDTH 250 0
DWIDTH 5 0
BBX 3 4 1 -5
BITMAP
E0
40
C0
80
ENDCHAR
STARTCHAR ff
ENCODING 64256
SWIDTH 773 0
DWIDTH 14 0
BBX 17 17 0 -2
BITMAP
038700
06CD00
0CD980
0D9B00
0D9300
183000
183000
3FFC00
706000
306000
306000
20C000
60C000
60C000
418000
C18000
C30000
ENDCHAR
STARTCHAR fi
ENCODING 64257
SWIDTH 623 0
DWIDTH 11 0
BBX 12 18 0 -3
BITMAP
01E0
0320
0630
0C30
0C60
1800
1FE0
7860
70C0
30C0
30C0
2180
6180
6180
61C0
C000
C000
8000
ENDCHAR
STARTCHAR fl
ENCODING 64258
SWIDTH 637 0
DWIDTH 11 0
BBX 12 18 0 -3
BITMAP
01E0
0330
0630
0C30
0C30
0860
1860
1E60
7FC0
30C0
30C0
3180
6180
61A0
61C0
C000
C000
8000
ENDCHAR
STARTCHAR .notdef
ENCODING -1
SWIDTH 896 0
DWIDTH 16 0
BBX 17 16 1 0
BITMAP
07FF00
0FFF80
0FFF00
1FFF00
1CE700
1C8E00
3CBE00
3C7E00
3EFE00
3C7C00
797C00
731C00
771800
FFF800
FFF800
FFF000
ENDCHAR
ENDFONT
